<?xml version="1.0" standalone="no"?>
<!DOCTYPE svg PUBLIC "-//W3C//DTD SVG 1.1//EN" "http://www.w3.org/Graphics/SVG/1.1/DTD/svg11.dtd" >
<svg xmlns="http://www.w3.org/2000/svg" xmlns:xlink="http://www.w3.org/1999/xlink" version="1.1">
<metadata>
Created by FontForge 20200427 at Mon Dec 21 13:49:42 2020
 By www
Copyright (c) 2020 by Oliver Jeschke. All rights reserved.
</metadata>
<defs>
<font id="Sequel100Wide-95" horiz-adv-x="902" >
  <font-face 
    font-family="Sequel100Wide-95"
    font-weight="400"
    font-stretch="expanded"
    units-per-em="1000"
    panose-1="2 11 6 3 5 0 0 2 0 4"
    ascent="794"
    descent="-206"
    x-height="542"
    cap-height="714"
    bbox="-335 -439 1731 1069"
    underline-thickness="50"
    underline-position="-100"
    unicode-range="U+000D-FB02"
  />
<missing-glyph horiz-adv-x="676" 
d="M33 1069h609v-1508h-609v1508zM564 1004h-453v-1377h453v1377zM151 391q10 152 183 152q79 0 128.5 -35.5t49.5 -100.5q0 -39 -18.5 -60t-52.5 -39q-31 -16 -41.5 -25.5t-10.5 -25.5v-3h-118v16q0 37 15.5 58t57.5 46q16 10 24 19t8 22q0 14 -11 23t-32 9
q-22 0 -35 -14.5t-14 -41.5h-133zM400 93h-140v123h140v-123z" />
    <glyph glyph-name="f_f" unicode="ff" horiz-adv-x="1078" 
d="M410.5 595.5q-23.5 -10.5 -23.5 -36.5q0 -8 1 -12l1 -5h131v-136h-131v-406h-296v406h-83v136h83v34q0 71 35 110t101 53.5t171 14.5q80 0 135 -11v-139q-6 0 -23 1t-36 1q-42 0 -65.5 -10.5zM940.5 595.5q-23.5 -10.5 -23.5 -36.5q0 -8 1 -12l1 -5h131v-136h-131v-406
h-296v406h-83v136h83v34q0 71 35 110t101 53.5t171 14.5q80 0 135 -11v-139q-6 0 -23 1t-36 1q-42 0 -65.5 -10.5z" />
    <glyph glyph-name="f_i" unicode="fi" horiz-adv-x="889" 
d="M410.5 595.5q-23.5 -10.5 -23.5 -36.5q0 -8 1 -12l1 -5h131v-136h-131v-406h-296v406h-83v136h83v34q0 71 35 110t101 53.5t171 14.5q80 0 135 -11v-139q-6 0 -23 1t-36 1q-42 0 -65.5 -10.5zM859 0h-296v542h296v-542zM861 604h-300v124h300v-124z" />
    <glyph glyph-name="f_l" unicode="fl" horiz-adv-x="904" 
d="M410.5 595.5q-23.5 -10.5 -23.5 -36.5q0 -8 1 -12l1 -5h131v-136h-131v-406h-296v406h-83v136h83v34q0 71 35 110t101 53.5t171 14.5q80 0 135 -11v-139q-6 0 -23 1t-36 1q-42 0 -65.5 -10.5zM874 0h-296v724h296v-724z" />
    <glyph glyph-name=".notdef" horiz-adv-x="676" 
d="M33 1069h609v-1508h-609v1508zM564 1004h-453v-1377h453v1377zM151 391q10 152 183 152q79 0 128.5 -35.5t49.5 -100.5q0 -39 -18.5 -60t-52.5 -39q-31 -16 -41.5 -25.5t-10.5 -25.5v-3h-118v16q0 37 15.5 58t57.5 46q16 10 24 19t8 22q0 14 -11 23t-32 9
q-22 0 -35 -14.5t-14 -41.5h-133zM400 93h-140v123h140v-123z" />
    <glyph glyph-name=".null" horiz-adv-x="0" 
 />
    <glyph glyph-name="nonmarkingreturn" unicode="&#xd;" horiz-adv-x="128" 
 />
    <glyph glyph-name="space" unicode=" " horiz-adv-x="346" 
 />
    <glyph glyph-name="exclam" unicode="!" horiz-adv-x="398" 
d="M363 588l-38 -306h-252l-38 306v126h328v-126zM348 0h-298v228h298v-228z" />
    <glyph glyph-name="quotedbl" unicode="&#x22;" horiz-adv-x="528" 
d="M214 714v-357h-185v357h185zM499 714v-357h-185v357h185z" />
    <glyph glyph-name="numbersign" unicode="#" horiz-adv-x="890" 
d="M877 529l-34 -123h-135l-30 -112h138l-35 -122h-136l-47 -172h-177l47 172h-142l-47 -172h-177l47 172h-136l34 122h136l31 112h-140l34 123h139l47 170h177l-47 -170h142l46 170h176l-46 -170h135zM360 294h141l31 112h-141z" />
    <glyph glyph-name="dollar" unicode="$" horiz-adv-x="944" 
d="M878 81.5q-47 -50.5 -136.5 -70.5t-236.5 -22v-109h-70v109q-143 2 -232.5 24t-138 75t-54.5 147h320q2 -36 27.5 -51.5t77.5 -18.5v93l-144 17q-126 15 -195 60t-69 149q0 124 105.5 174.5t302.5 52.5v86h70v-86q185 -5 283.5 -55.5t106.5 -171.5h-314q-6 44 -76 55v-83
l156 -15q127 -12 195.5 -63.5t68.5 -152.5q0 -93 -47 -143.5zM435 462v80q-51 -2 -70 -11.5t-19 -27.5t17 -27t65 -13zM505 165q51 1 70.5 10t19.5 27q0 21 -18 31.5t-68 16.5h-4v-85z" />
    <glyph glyph-name="percent" unicode="%" horiz-adv-x="1207" 
d="M459 663.5q59 -50.5 59 -154.5t-59 -154.5t-189 -50.5t-189 50.5t-59 154.5t59 154.5t189 50.5t189 -50.5zM307 0l456 700h137l-456 -700h-137zM340 509q0 87 -70 87t-70 -87t70 -87t70 87zM1126 345.5q59 -50.5 59 -154.5t-59 -154.5t-189 -50.5t-189 50.5t-59 154.5
t59 154.5t189 50.5t189 -50.5zM1007 191q0 87 -70 87t-70 -87t70 -87t70 87z" />
    <glyph glyph-name="ampersand" unicode="&#x26;" horiz-adv-x="1079" 
d="M1093 0h-338l-46 35q-124 -51 -261 -51q-188 0 -307 50t-119 170q0 55 20.5 89t53.5 53t83 36l52 18q-52 40 -73 71t-21 79q0 60 32 99.5t107.5 60t203.5 20.5q189 0 267.5 -44.5t78.5 -135.5q0 -54 -29 -82.5t-97 -55.5l-96 -39l103 -79q19 39 19 78h250
q0 -121 -87 -216zM423.5 515q12.5 -14 40.5 -35l23 8q35 12 49.5 26.5t14.5 33.5t-15.5 30t-55.5 11q-39 0 -54 -12t-15 -32q0 -16 12.5 -30zM548 158l-166 127l-12 -5q-49 -20 -49 -67q0 -29 30.5 -49.5t96.5 -20.5q55 0 100 15z" />
    <glyph glyph-name="quotesingle" unicode="'" horiz-adv-x="243" 
d="M214 714v-357h-185v357h185z" />
    <glyph glyph-name="parenleft" unicode="(" horiz-adv-x="468" 
d="M309.5 67.5q32.5 -95.5 73.5 -154.5t72 -85h-225q-76 55 -146.5 159.5t-70.5 296.5t70.5 296.5t146.5 159.5h225q-31 -26 -72 -85t-73.5 -154.5t-32.5 -216.5t32.5 -216.5z" />
    <glyph glyph-name="parenright" unicode=")" horiz-adv-x="463" 
d="M158.5 500.5q-32.5 95.5 -73.5 154.5t-72 85h225q76 -55 146.5 -159.5t70.5 -296.5t-70.5 -296.5t-146.5 -159.5h-225q31 26 72 85t73.5 154.5t32.5 216.5t-32.5 216.5z" />
    <glyph glyph-name="asterisk" unicode="*" horiz-adv-x="558" 
d="M455 668l81 -117l-137 -89l137 -86l-81 -120l-102 83l1 -126h-150l1 126l-102 -83l-81 120l137 86l-137 89l81 117l102 -78l-1 124h150l-1 -124z" />
    <glyph glyph-name="plus" unicode="+" horiz-adv-x="618" 
d="M393 405h180v-158h-180v-186h-168v186h-180v158h180v184h168v-184z" />
    <glyph glyph-name="comma" unicode="," horiz-adv-x="378" 
d="M343 69q0 -107 -30.5 -171.5t-98 -94t-179.5 -29.5v96q68 0 96.5 33.5t28.5 96.5h-125v250h308v-181z" />
    <glyph glyph-name="hyphen" unicode="-" horiz-adv-x="476" 
d="M454 385v-206h-432v206h432z" />
    <glyph glyph-name="period" unicode="." horiz-adv-x="378" 
d="M343 0h-308v250h308v-250z" />
    <glyph glyph-name="slash" unicode="/" horiz-adv-x="569" 
d="M13 0l349 714h194l-349 -714h-194z" />
    <glyph glyph-name="zero" unicode="0" horiz-adv-x="1006" 
d="M868.5 633.5q115.5 -92.5 115.5 -283.5t-115.5 -283.5t-365.5 -92.5t-365.5 92.5t-115.5 283.5t115.5 283.5t365.5 92.5t365.5 -92.5zM631.5 224.5q41.5 40.5 41.5 125.5t-41.5 125.5t-128.5 40.5t-128.5 -40.5t-41.5 -125.5t41.5 -125.5t128.5 -40.5t128.5 40.5z" />
    <glyph glyph-name="one" unicode="1" horiz-adv-x="566" 
d="M531 700v-700h-298v382h-220v190h74q93 0 136 32.5t60 95.5h248z" />
    <glyph glyph-name="two" unicode="2" horiz-adv-x="950" 
d="M398 223q-26 -5 -43.5 -15t-21.5 -22h584v-186h-901v30q0 116 52 191.5t129 115.5t175 66l126 33q54 14 78.5 28.5t24.5 35.5q0 22 -27 33t-89 11q-118 0 -127 -79h-325q7 92 55 149t143.5 84.5t245.5 27.5q157 0 254 -20t145 -66.5t48 -127.5q0 -73 -35 -118.5
t-91.5 -69.5t-141.5 -43z" />
    <glyph glyph-name="three" unicode="3" horiz-adv-x="963" 
d="M781 364q76 -10 119.5 -47.5t43.5 -114.5q0 -81 -43.5 -130.5t-145.5 -73.5t-278 -24q-177 0 -276.5 25t-143 79t-47.5 147h326q4 -36 37.5 -51t103.5 -15q73 0 106.5 12.5t33.5 46.5q0 32 -28 44t-80 12h-164v162h164q49 0 75.5 11t26.5 42t-32.5 43t-101.5 12
q-65 0 -97 -13.5t-35 -43.5h-306q4 86 48.5 138t139 76.5t250.5 24.5q157 0 253 -21.5t141 -69.5t45 -127q0 -63 -35 -95.5t-100 -42.5v-6z" />
    <glyph glyph-name="four" unicode="4" horiz-adv-x="932" 
d="M502 0v134h-489v196l393 370h391v-396h119v-170h-119v-134h-295zM296 304h206v194h-6l-200 -188v-6z" />
    <glyph glyph-name="five" unicode="5" horiz-adv-x="938" 
d="M871 700v-180h-557l-6 -92h6q46 20 96.5 31.5t149.5 11.5q186 0 272.5 -57.5t86.5 -187.5q0 -90 -43 -144.5t-142 -81t-267 -26.5q-167 0 -263.5 25t-138.5 75.5t-46 132.5h322q8 -47 126 -47q66 0 98 15.5t32 50.5t-32 50.5t-97 15.5q-68 0 -119 -22h-316l31 430h807z
" />
    <glyph glyph-name="six" unicode="6" horiz-adv-x="971" 
d="M775 433q92 -24 134.5 -74.5t42.5 -132.5q0 -126 -104.5 -189t-345.5 -63q-174 0 -278 34.5t-153 116t-49 223.5q0 134 49 217t152 122t269 39q244 0 345 -65t111 -168h-323q-7 56 -133 56q-76 0 -121.5 -30t-49.5 -101h6q35 19 95 29t110 10q151 0 243 -24zM373.5 265.5
q-35.5 -14.5 -35.5 -49.5q0 -36 36 -50.5t110 -14.5t110 15t36 51q0 35 -35.5 49t-110.5 14t-110.5 -14.5z" />
    <glyph glyph-name="seven" unicode="7" horiz-adv-x="907" 
d="M10 700h881v-112q0 -73 -23 -120.5t-68 -88.5q2 2 -38 -32q-57 -48 -92.5 -87t-63 -103.5t-32.5 -156.5h-391q5 102 50.5 181t110.5 137.5t184 147.5l29 21v6h-547v207z" />
    <glyph glyph-name="eight" unicode="8" horiz-adv-x="978" 
d="M745 704.5q97 -21.5 142.5 -69t45.5 -127.5q0 -62 -38 -95.5t-102 -42.5v-6q79 -10 121 -48.5t42 -116.5q0 -83 -43.5 -131.5t-144.5 -71t-279 -22.5t-279 22.5t-144.5 71t-43.5 131.5q0 78 42 116.5t121 48.5v6q-64 9 -102 42.5t-38 95.5q0 80 45.5 127.5t142.5 69
t256 21.5t256 -21.5zM383.5 534q-33.5 -13 -33.5 -45q0 -31 32.5 -43.5t106.5 -12.5t106.5 12.5t32.5 43.5q0 32 -33.5 45t-105.5 13t-105.5 -13zM596 169q33 14 33 49q0 34 -33 47t-107 13t-107 -13t-33 -47q0 -35 33 -49t107 -14t107 14z" />
    <glyph glyph-name="nine" unicode="9" horiz-adv-x="965" 
d="M190 267q-92 24 -134.5 74.5t-42.5 132.5q0 126 104.5 189t345.5 63q174 0 278 -34.5t153 -116t49 -223.5q0 -134 -49 -217t-152 -122t-269 -39q-244 0 -345 65t-111 168h323q7 -56 133 -56q76 0 121.5 30t49.5 101h-6q-35 -19 -95 -29t-110 -10q-151 0 -243 24z
M591.5 434.5q35.5 14.5 35.5 49.5q0 36 -36 50.5t-110 14.5t-110 -15t-36 -51q0 -35 35.5 -49t110.5 -14t110.5 14.5z" />
    <glyph glyph-name="colon" unicode=":" horiz-adv-x="358" 
d="M323 314h-288v228h288v-228zM323 0h-288v228h288v-228z" />
    <glyph glyph-name="semicolon" unicode=";" horiz-adv-x="358" 
d="M323 314h-288v228h288v-228zM323 69q0 -106 -29.5 -171t-92.5 -94.5t-166 -29.5v96q105 0 105 130h-105v228h288v-159z" />
    <glyph glyph-name="less" unicode="&#x3c;" horiz-adv-x="619" 
d="M45 261v121l529 210v-154l-297 -113v-6l297 -113v-154z" />
    <glyph glyph-name="equal" unicode="=" horiz-adv-x="618" 
d="M45 511h528v-147h-528v147zM45 287h528v-148h-528v148z" />
    <glyph glyph-name="greater" unicode="&#x3e;" horiz-adv-x="619" 
d="M45 592l529 -210v-121l-529 -209v154l297 113v6l-297 113v154z" />
    <glyph glyph-name="question" unicode="?" horiz-adv-x="866" 
d="M13 476q0 99 50.5 155t142 77.5t229.5 21.5q145 0 236 -19t136.5 -62.5t45.5 -119.5q0 -56 -28 -89t-93 -56l-98 -34q-48 -17 -54 -55l-2 -13h-296v18q0 44 10.5 70.5t36 44t72.5 32.5l67 21q43 13 58.5 22.5t15.5 27.5q0 20 -23.5 30.5t-79.5 10.5t-87 -18.5t-31 -64.5
h-308zM579 0h-298v228h298v-228z" />
    <glyph glyph-name="at" unicode="@" horiz-adv-x="1056" 
d="M615 484h148l-57 -286q-1 -4 -1 -11q0 -25 28 -25q64 0 110.5 38.5t46.5 157.5q0 86 -44.5 149t-124.5 97t-184 34t-189 -51t-133.5 -139.5t-48.5 -196.5q0 -98 39.5 -173t118 -117.5t192.5 -42.5q76 0 137 17.5t123 57.5h149q-32 -55 -94.5 -98.5t-145 -67.5t-173.5 -24
q-152 0 -262.5 58.5t-169 161.5t-58.5 233q0 140 69 254t188 179t262 65q136 0 249 -48.5t178.5 -131.5t65.5 -182q0 -122 -49.5 -196.5t-121.5 -105.5t-146 -31q-63 0 -96 13t-36 47h-6q-30 -36 -66 -48t-82 -12q-77 0 -120.5 46t-43.5 127q0 59 19.5 111.5t57.5 91.5
q57 59 140 59q95 0 115 -60h6zM451 349q-16 -21 -25.5 -55t-9.5 -62q0 -67 63 -67q42 0 71 38q16 21 25.5 55t9.5 62q0 67 -63 67q-42 0 -71 -38z" />
    <glyph glyph-name="A" unicode="A" horiz-adv-x="1054" 
d="M1068 0h-321l-41 90h-358l-41 -90h-321l344 714h394zM524 482l-93 -206h192l-93 206h-6z" />
    <glyph glyph-name="B" unicode="B" horiz-adv-x="993" 
d="M826 382q68 -13 106.5 -51t38.5 -118q0 -74 -26 -120.5t-85 -69.5t-160 -23h-665v714h645q264 0 264 -185q0 -57 -29.5 -90.5t-88.5 -48.5v-8zM563 436q34 0 48.5 12t14.5 37q0 27 -14 39t-49 12h-228v-100h228zM570 173q40 0 56.5 13.5t16.5 43.5q0 31 -16 45t-57 14
h-235v-116h235z" />
    <glyph glyph-name="C" unicode="C" horiz-adv-x="1070" 
d="M700 426q-10 95 -163 95q-94 0 -140.5 -42t-46.5 -122t46.5 -122t140.5 -42q88 0 124 29.5t41 82.5h346q-4 -166 -129 -249t-382 -83q-260 0 -387.5 94.5t-127.5 289.5t127.5 289.5t387.5 94.5q501 0 509 -315h-346z" />
    <glyph glyph-name="D" unicode="D" horiz-adv-x="995" 
d="M555 714q147 0 238.5 -35t135.5 -113.5t44 -208.5t-44 -208.5t-135.5 -113.5t-238.5 -35h-520v714h520zM335 504v-294h138q90 0 131 34t41 113t-41 113t-131 34h-138z" />
    <glyph glyph-name="E" unicode="E" horiz-adv-x="875" 
d="M844 532h-509v-90h483v-165h-483v-98h515v-179h-815v714h809v-182z" />
    <glyph glyph-name="F" unicode="F" horiz-adv-x="865" 
d="M846 714v-202h-511v-112h483v-192h-483v-208h-300v714h811z" />
    <glyph glyph-name="G" unicode="G" horiz-adv-x="1085" 
d="M577 239v162h478v-401h-210v63q-103 -90 -296 -90q-269 0 -398 94.5t-129 290.5q0 195 128.5 289t392.5 94q258 0 380.5 -74.5t128.5 -208.5h-345q-27 63 -162 63q-195 0 -195 -164q0 -92 48 -136t153 -44q58 0 99 12t61.5 27t20.5 23h-155z" />
    <glyph glyph-name="H" unicode="H" horiz-adv-x="1000" 
d="M665 465v249h300v-714h-300v257h-330v-257h-300v714h300v-249h330z" />
    <glyph glyph-name="I" unicode="I" horiz-adv-x="370" 
d="M335 714v-714h-300v714h300z" />
    <glyph glyph-name="J" unicode="J" horiz-adv-x="956" 
d="M921 342q0 -146 -54 -226.5t-153 -111t-250 -30.5t-247.5 30.5t-148.5 111t-52 226.5v18h300v-18q0 -80 36 -114t112 -34q77 0 117 34.5t40 113.5v372h300v-372z" />
    <glyph glyph-name="K" unicode="K" horiz-adv-x="994" 
d="M959 714l-296 -255l345 -459h-360l-196 276l-117 -100v-176h-300v714h300v-253l283 253h341z" />
    <glyph glyph-name="L" unicode="L" horiz-adv-x="851" 
d="M832 210v-210h-797v714h300v-504h497z" />
    <glyph glyph-name="M" unicode="M" horiz-adv-x="1211" 
d="M708 714h468v-714h-300v450h-6l-162 -450h-221l-164 453h-6v-453h-282v714h451l108 -355h6z" />
    <glyph glyph-name="N" unicode="N" horiz-adv-x="1000" 
d="M683 340v374h282v-714h-341l-301 378h-6v-378h-282v714h345l297 -374h6z" />
    <glyph glyph-name="O" unicode="O" horiz-adv-x="1092" 
d="M941 647q129 -94 129 -290t-129 -290t-395 -94t-395 94t-129 290t129 290t395 94t395 -94zM742 357q0 164 -196 164t-196 -164t196 -164t196 164z" />
    <glyph glyph-name="P" unicode="P" horiz-adv-x="970" 
d="M639 714q119 0 188.5 -28t99.5 -84.5t30 -147.5q0 -88 -30.5 -143t-100 -82t-187.5 -27h-304v-202h-300v714h604zM547 388q45 0 63.5 15.5t18.5 49.5q0 35 -18.5 51t-63.5 16h-212v-132h212z" />
    <glyph glyph-name="Q" unicode="Q" horiz-adv-x="1092" 
d="M1013.5 142q-56.5 -85 -171.5 -127l45 -75l-150 -62l-61 101q-60 -6 -130 -6q-266 0 -395 94t-129 290t129 290t395 94t395 -94t129 -290q0 -130 -56.5 -215zM652 333l53 -88q37 40 37 112q0 164 -196 164t-196 -164t196 -164h3l-47 78z" />
    <glyph glyph-name="R" unicode="R" horiz-adv-x="985" 
d="M823 262l162 -262h-331l-116 202h-203v-202h-300v714h616q174 0 246 -61.5t72 -184.5q0 -85 -37 -131t-109 -65v-10zM559 377q41 0 58.5 14.5t17.5 45.5q0 32 -17 47t-59 15h-224v-122h224z" />
    <glyph glyph-name="S" unicode="S" horiz-adv-x="1002" 
d="M617 500q-3 29 -35.5 45t-95.5 16q-68 0 -93.5 -10.5t-25.5 -30.5t18 -29.5t69 -13.5l248 -23q135 -13 208 -67.5t73 -162.5q0 -103 -54 -157.5t-157.5 -74t-274.5 -19.5q-166 0 -269 22t-158.5 79t-59.5 161h340q4 -45 39.5 -60.5t111.5 -15.5q75 0 103 10t28 31
q0 22 -19 33.5t-72 17.5l-232 26q-134 15 -207.5 63.5t-73.5 159.5q0 135 119.5 188t342.5 53q220 0 337.5 -52.5t123.5 -188.5h-334z" />
    <glyph glyph-name="T" unicode="T" horiz-adv-x="890" 
d="M16 714h858v-214h-279v-500h-300v500h-279v214z" />
    <glyph glyph-name="U" unicode="U" horiz-adv-x="994" 
d="M659 714h300v-402q0 -127 -54.5 -201.5t-155.5 -105.5t-252 -31t-252 31t-155.5 105.5t-54.5 201.5v402h300v-401q0 -66 40.5 -92.5t121.5 -26.5t121.5 26.5t40.5 92.5v401z" />
    <glyph glyph-name="V" unicode="V" horiz-adv-x="978" 
d="M-17 714h343l159 -419h6l161 419h343l-329 -714h-354z" />
    <glyph glyph-name="W" unicode="W" horiz-adv-x="1280" 
d="M1297 714l-198 -714h-357l-99 428h-6l-99 -428h-363l-192 714h303l91 -433h6l100 433h314l101 -433h6l92 433h301z" />
    <glyph glyph-name="X" unicode="X" horiz-adv-x="946" 
d="M931 714l-274 -341l306 -373h-366l-124 179l-124 -179h-366l306 373l-274 341h351l107 -156l107 156h351z" />
    <glyph glyph-name="Y" unicode="Y" horiz-adv-x="968" 
d="M644 714h344l-354 -488v-226h-300v226l-354 488h345l159 -251z" />
    <glyph glyph-name="Z" unicode="Z" horiz-adv-x="927" 
d="M901 714v-212l-398 -282h399v-220h-883v212l398 282h-380v220h864z" />
    <glyph glyph-name="bracketleft" unicode="[" horiz-adv-x="481" 
d="M459 568h-160v-568h160v-172h-424v912h424v-172z" />
    <glyph glyph-name="backslash" unicode="\" horiz-adv-x="569" 
d="M13 714h194l349 -714h-194z" />
    <glyph glyph-name="bracketright" unicode="]" horiz-adv-x="491" 
d="M192 0v568h-160v172h424v-912h-424v172h160z" />
    <glyph glyph-name="asciicircum" unicode="^" horiz-adv-x="682" 
d="M241 699h200l219 -346h-199l-117 193h-6l-117 -193h-199z" />
    <glyph glyph-name="underscore" unicode="_" horiz-adv-x="746" 
d="M-2 -105h750v-60h-750v60z" />
    <glyph glyph-name="grave" unicode="`" horiz-adv-x="524" 
d="M247 604l-212 157h358l96 -157h-242z" />
    <glyph glyph-name="a" unicode="a" horiz-adv-x="878" 
d="M849 87q0 -30 3.5 -47.5t16.5 -33.5v-6h-291q-8 8 -14 22.5t-6 31.5v20q-34 -44 -105 -71t-163 -27q-116 0 -193.5 42t-77.5 137q0 90 54 131t148 48l254 19q38 3 53.5 10.5t15.5 25.5t-22.5 26t-66.5 8q-41 0 -67 -12.5t-29 -36.5h-304q5 110 107.5 151.5t286.5 41.5
q131 0 217 -13.5t134.5 -51t48.5 -107.5v-308zM553 248q-16 -9 -46 -13l-123 -20q-30 -5 -45 -16.5t-15 -33.5q0 -23 19 -33t55 -10q69 0 112 28.5t43 84.5v13z" />
    <glyph glyph-name="b" unicode="b" horiz-adv-x="909" 
d="M332 476q42 40 96.5 60t129.5 20q158 0 245 -74t87 -216q0 -141 -87.5 -215.5t-244.5 -74.5q-76 0 -131.5 20t-99.5 64h-6v-60h-291v724h296v-248h6zM585 266q0 105 -131 105q-76 0 -106.5 -30t-30.5 -75t30.5 -75t106.5 -30q131 0 131 105z" />
    <glyph glyph-name="c" unicode="c" horiz-adv-x="908" 
d="M543.5 179.5q26.5 18.5 28.5 44.5h317q-3 -248 -438 -248q-225 0 -328.5 75t-103.5 220t103.5 220.5t328.5 75.5q425 0 437 -243h-316q-3 23 -29 40.5t-92 17.5q-127 0 -127 -111q0 -51 30.5 -80.5t96.5 -29.5t92.5 18.5z" />
    <glyph glyph-name="d" unicode="d" horiz-adv-x="909" 
d="M583 476v248h296v-724h-291v60h-6q-44 -44 -99.5 -64t-131.5 -20q-157 0 -244.5 74.5t-87.5 215.5q0 142 87 216t245 74q75 0 129.5 -20t96.5 -60h6zM561.5 191q30.5 30 30.5 75t-30.5 75t-106.5 30q-131 0 -131 -105t131 -105q76 0 106.5 30z" />
    <glyph glyph-name="e" unicode="e" 
d="M880 217h-558q3 -49 33.5 -72.5t95.5 -23.5q95 0 125 50h300q-6 -86 -99.5 -140.5t-325.5 -54.5q-226 0 -329 75t-103 221q0 144 103.5 219.5t328.5 75.5t328.5 -75.5t103.5 -220.5q0 -27 -3 -54zM363 404q-30 -18 -38 -55h252q-8 37 -38 55t-88 18t-88 -18z" />
    <glyph glyph-name="f" unicode="f" horiz-adv-x="548" 
d="M410.5 595.5q-23.5 -10.5 -23.5 -36.5q0 -8 1 -12l1 -5h131v-136h-131v-406h-296v406h-83v136h83v34q0 71 35 110t101 53.5t171 14.5q80 0 135 -11v-139q-6 0 -23 1t-36 1q-42 0 -65.5 -10.5z" />
    <glyph glyph-name="g" unicode="g" horiz-adv-x="907" 
d="M586 542h291v-500q0 -85 -29 -134.5t-120.5 -76.5t-274.5 -27q-174 0 -267 27t-125 69t-35 100h314q3 -24 25 -37.5t88 -13.5q56 0 83.5 9t36 28t8.5 56v77h-6q-77 -75 -225 -75q-158 0 -244.5 64.5t-86.5 191.5q0 128 86.5 192t244.5 64q148 0 230 -76h6v62zM589 300
q0 83 -136 83q-129 0 -129 -83t129 -83q136 0 136 83z" />
    <glyph glyph-name="h" unicode="h" horiz-adv-x="858" 
d="M761 503q67 -53 67 -166v-337h-296v255q0 96 -92 96q-52 0 -83 -27t-31 -89v-235h-296v724h296v-253h6q41 40 99.5 62.5t144.5 22.5q118 0 185 -53z" />
    <glyph glyph-name="i" unicode="i" horiz-adv-x="356" 
d="M326 0h-296v542h296v-542zM328 604h-300v124h300v-124z" />
    <glyph glyph-name="j" unicode="j" horiz-adv-x="356" 
d="M20.5 21.5q9.5 7.5 9.5 31.5v489h296v-541q0 -86 -25.5 -127.5t-85 -55.5t-179.5 -14q-56 0 -86 2v210q14 -2 34 -2q27 0 36.5 7.5zM328 604h-300v124h300v-124z" />
    <glyph glyph-name="k" unicode="k" horiz-adv-x="863" 
d="M841 542l-246 -204l278 -338h-348l-127 174l-72 -60v-114h-296v724h296v-353l190 171h325z" />
    <glyph glyph-name="l" unicode="l" horiz-adv-x="356" 
d="M326 0h-296v724h296v-724z" />
    <glyph glyph-name="m" unicode="m" horiz-adv-x="1288" 
d="M321 542v-75h6q37 43 101 66t131 23q77 0 130.5 -20t81.5 -74q43 49 105.5 71.5t137.5 22.5q112 0 178 -53t66 -164v-339h-296v272q0 79 -76 79q-94 0 -94 -95v-256h-296v272q0 79 -76 79q-94 0 -94 -95v-256h-296v542h291z" />
    <glyph glyph-name="n" unicode="n" horiz-adv-x="858" 
d="M321 542v-71h6q45 40 104 62.5t145 22.5q118 0 185 -53t67 -166v-337h-296v255q0 96 -92 96q-52 0 -83 -27t-31 -89v-235h-296v542h291z" />
    <glyph glyph-name="o" unicode="o" 
d="M779.5 491.5q103.5 -75.5 103.5 -219.5q0 -146 -103 -221t-329 -75t-329 75t-103 221q0 144 103.5 219.5t328.5 75.5t328.5 -75.5zM547.5 191q30.5 30 30.5 81t-30.5 80.5t-96.5 29.5t-96.5 -29.5t-30.5 -80.5t30.5 -81t96.5 -30t96.5 30z" />
    <glyph glyph-name="p" unicode="p" horiz-adv-x="909" 
d="M326 56v-238h-296v724h291v-70h6q44 44 99.5 64t131.5 20q157 0 244.5 -74.5t87.5 -215.5q0 -142 -87 -216t-245 -74q-75 0 -129.5 20t-96.5 60h-6zM347.5 341q-30.5 -30 -30.5 -75t30.5 -75t106.5 -30q131 0 131 105t-131 105q-76 0 -106.5 -30z" />
    <glyph glyph-name="q" unicode="q" horiz-adv-x="909" 
d="M577 56q-42 -40 -96.5 -60t-129.5 -20q-158 0 -245 74t-87 216q0 141 87.5 215.5t244.5 74.5q76 0 131.5 -20t99.5 -64h6v70h291v-724h-296v238h-6zM324 266q0 -105 131 -105q76 0 106.5 30t30.5 75t-30.5 75t-106.5 30q-131 0 -131 -105z" />
    <glyph glyph-name="r" unicode="r" horiz-adv-x="647" 
d="M30 542h291v-82h6q40 50 103 73t153 23q16 0 48 -4v-263q-66 11 -122 11q-85 0 -134 -31t-49 -114v-155h-296v542z" />
    <glyph glyph-name="s" unicode="s" horiz-adv-x="907" 
d="M547 384q-3 26 -32 37.5t-85 11.5q-97 0 -97 -34q0 -15 13 -22t47 -10l276 -26q105 -10 162 -48.5t57 -123.5q0 -78 -49 -120t-142 -57.5t-244 -15.5q-144 0 -238 15t-148 57.5t-57 122.5h330q3 -35 28.5 -47.5t87.5 -12.5q63 0 88.5 9.5t25.5 26.5q0 16 -13 24t-47 12
l-242 25q-114 11 -178 51.5t-64 121.5q0 75 49 116t135.5 55.5t218.5 14.5q138 0 231 -14.5t148 -54.5t58 -114h-319z" />
    <glyph glyph-name="t" unicode="t" horiz-adv-x="536" 
d="M510 202v-202q-8 -1 -59.5 -5t-104.5 -4q-103 0 -160 19t-81 61.5t-24 117.5v217h-81v136h81v144h296v-144h133v-136h-133v-171q0 -20 14.5 -27t52.5 -7q36 0 66 1z" />
    <glyph glyph-name="u" unicode="u" horiz-adv-x="858" 
d="M537 0v71h-6q-45 -40 -104 -62.5t-145 -22.5q-118 0 -185 53t-67 166v337h296v-255q0 -96 92 -96q52 0 83 27t31 89v235h296v-542h-291z" />
    <glyph glyph-name="v" unicode="v" horiz-adv-x="878" 
d="M442 256l114 286h332l-277 -542h-344l-277 542h332l114 -286h6z" />
    <glyph glyph-name="w" unicode="w" horiz-adv-x="1267" 
d="M963 542h310l-233 -542h-304l-93 289h-6l-93 -289h-318l-232 542h313l97 -282h6l91 282h271l90 -281h6z" />
    <glyph glyph-name="x" unicode="x" horiz-adv-x="897" 
d="M875 542l-232 -258l264 -284h-357l-101 137l-102 -137h-357l264 284l-232 258h338l89 -126l88 126h338z" />
    <glyph glyph-name="y" unicode="y" horiz-adv-x="878" 
d="M623 23q-50 -98 -84.5 -140.5t-92.5 -60.5t-172 -18h-187v211h109q39 0 49 2t12 8l1 3l-268 514h332l114 -286h6l114 286h332z" />
    <glyph glyph-name="z" unicode="z" horiz-adv-x="801" 
d="M772 178v-178h-753v179l313 187h-292v176h732v-175l-316 -189h316z" />
    <glyph glyph-name="braceleft" unicode="{" horiz-adv-x="528" 
d="M383 427q0 -60 -29.5 -95t-80.5 -45v-6q51 -10 80.5 -45t29.5 -95v-80q0 -21 3.5 -33t18 -20t46.5 -8h55v-172h-187q-103 0 -151.5 35.5t-48.5 92.5v160q0 36 -11.5 52.5t-31 21t-54.5 4.5v180q35 0 54.5 4.5t31 21t11.5 52.5v160q0 57 48.5 92.5t151.5 35.5h187v-172
h-55q-32 0 -46.5 -8t-18 -20t-3.5 -33v-80z" />
    <glyph glyph-name="bar" unicode="|" horiz-adv-x="356" 
d="M35 797h286v-1023h-286v1023z" />
    <glyph glyph-name="braceright" unicode="}" horiz-adv-x="520" 
d="M145 507q0 21 -3.5 33t-18 20t-46.5 8h-55v172h187q103 0 151.5 -35.5t48.5 -92.5v-160q0 -36 11.5 -52.5t31 -21t54.5 -4.5v-180q-35 0 -54.5 -4.5t-31 -21t-11.5 -52.5v-160q0 -57 -48.5 -92.5t-151.5 -35.5h-187v172h55q32 0 46.5 8t18 20t3.5 33v80q0 60 29.5 95
t80.5 45v6q-51 10 -80.5 45t-29.5 95v80z" />
    <glyph glyph-name="asciitilde" unicode="~" horiz-adv-x="618" 
d="M502 374.5q29 20.5 71 67.5v-154q-62 -70 -125 -70q-32 0 -56 8.5t-53 22.5l-72 36q-4 2 -21 11t-37 14.5t-39 5.5q-25 0 -52.5 -20t-72.5 -65v154q33 32 60 49.5t65 17.5q33 0 57 -8.5t54 -23.5l73 -36q5 -2 21.5 -10.5t35.5 -14t37 -5.5q25 0 54 20.5z" />
    <glyph glyph-name="uni00A0" unicode="&#xa0;" horiz-adv-x="128" 
 />
    <glyph glyph-name="exclamdown" unicode="&#xa1;" horiz-adv-x="398" 
d="M50 314v228h298v-228h-298zM73 260h252l38 -306v-126h-328v126z" />
    <glyph glyph-name="cent" unicode="&#xa2;" horiz-adv-x="908" 
d="M889 224q-3 -237 -402 -248v-107h-70v107q-207 6 -302.5 81t-95.5 214t95.5 214.5t302.5 81.5v89h70v-89q389 -11 401 -243h-316q-7 47 -85 56v-217q46 5 64.5 22.5t20.5 38.5h317zM346.5 199q22.5 -28 70.5 -36v217q-93 -15 -93 -109q0 -44 22.5 -72z" />
    <glyph glyph-name="sterling" unicode="&#xa3;" horiz-adv-x="901" 
d="M665 200q55 0 104 11.5t91 43.5v-225q-16 -17 -76 -30.5t-110 -13.5q-128 0 -248 62q-35 -35 -84 -48.5t-128 -13.5q-201 0 -201 147q0 72 44 104.5t107 32.5q30 0 75 -13q-12 27 -44 56h-149v95h69q-34 46 -34 90q0 83 44.5 130t127 66t206.5 19q130 0 217 -21
t140.5 -78t65.5 -160h-305q-5 76 -105 76q-81 0 -81 -50q0 -18 8.5 -35t23.5 -37h191v-95h-109q18 -13 28 -29t10 -38q0 -15 -8 -34q39 -8 94 -11q12 -1 36 -1zM225.5 101.5q17.5 15.5 20.5 49.5q-37 21 -58 21t-33.5 -11.5t-12.5 -32.5q0 -20 12.5 -31t30.5 -11
q23 0 40.5 15.5z" />
    <glyph glyph-name="currency" unicode="&#xa4;" horiz-adv-x="656" 
d="M566 228l69 -68l-98 -87l-67 65q-65 -38 -142 -38t-142 38l-67 -65l-99 87l70 68q-41 65 -41 140t41 140l-69 68l98 87l67 -65q65 38 142 38t142 -38l67 65l99 -87l-70 -68q41 -65 41 -140t-41 -140zM391 256.5q29 17.5 46 47t17 64.5t-17 64.5t-46 47t-63 17.5
t-63 -17.5t-46 -47t-17 -64.5t17 -64.5t46 -47t63 -17.5t63 17.5z" />
    <glyph glyph-name="yen" unicode="&#xa5;" horiz-adv-x="948" 
d="M631 700h337l-205 -283h122v-94h-191l-37 -52h228v-94h-264v-177h-294v177h-264v94h228l-37 52h-191v94h122l-205 283h338l156 -246z" />
    <glyph glyph-name="brokenbar" unicode="&#xa6;" horiz-adv-x="356" 
d="M35 797h286v-436h-286v436zM35 210h286v-436h-286v436z" />
    <glyph glyph-name="section" unicode="&#xa7;" horiz-adv-x="1006" 
d="M887 107q31 -38 31 -98q0 -95 -51 -145t-140 -66.5t-230 -16.5q-136 0 -221.5 18t-133.5 70t-52 150h275q2 -38 37 -49.5t108 -11.5q62 0 88.5 6.5t27.5 23.5q0 25 -56 32l-336 60q-82 16 -129.5 39.5t-69 60t-21.5 92.5q0 59 36 97.5t93 58.5q-10 14 -16.5 38t-6.5 48
q0 88 48 135.5t129 64t201 16.5q117 0 198.5 -17.5t131 -64.5t53.5 -133h-277q-8 46 -117 46q-85 0 -85 -26q0 -11 9.5 -15.5t27.5 -6.5l323 -53q84 -15 133 -36.5t73 -58.5t24 -97q0 -113 -105 -161zM698 196l25 -2q15 14 15 34q0 25 -24 35t-77 20l-307 53l-55 11
q-18 -18 -18 -34q0 -27 20 -37.5t65 -18.5z" />
    <glyph glyph-name="dieresis" unicode="&#xa8;" horiz-adv-x="666" 
d="M295 604h-260v124h260v-124zM631 604h-260v124h260v-124z" />
    <glyph glyph-name="copyright" unicode="&#xa9;" horiz-adv-x="789" 
d="M207.5 34q-85.5 50 -135.5 135.5t-50 186.5t50 187t135.5 136t186.5 50t187 -50t136 -136t50 -187t-50 -186.5t-136 -135.5t-187 -50t-186.5 50zM540.5 103.5q67.5 39.5 107 106.5t39.5 146t-39.5 146.5t-107 107t-146.5 39.5t-146 -39.5t-106.5 -107t-39.5 -146.5
t39.5 -146t106.5 -106.5t146 -39.5t146.5 39.5zM573 318q-4 -67 -49.5 -107.5t-128.5 -40.5q-84 0 -133.5 47t-49.5 140t49.5 140t133.5 47q83 0 127.5 -39.5t47.5 -98.5h-113q-2 27 -18 37.5t-44 10.5q-29 0 -49 -21.5t-20 -75.5t20 -75.5t49 -21.5t46 12t18 46h114z" />
    <glyph glyph-name="ordfeminine" unicode="&#xaa;" horiz-adv-x="537" 
d="M515 436q0 -18 2 -28.5t10 -19.5v-4h-177q-13 13 -13 31v13q-19 -26 -61.5 -42t-97.5 -16q-69 0 -115.5 24.5t-46.5 81.5q0 53 32.5 77.5t88.5 28.5l151 11q23 2 32 6.5t9 14.5q0 19 -51 19q-23 0 -38 -7t-17 -21h-185q3 65 64.5 90t171.5 25q121 0 181 -21t60 -82v-181z
M334 530q-10 -6 -27 -8l-70 -11q-35 -5 -35 -29q0 -13 11 -18.5t32 -5.5q41 0 65 16.5t24 48.5v7zM13 0v124h518v-124h-518z" />
    <glyph glyph-name="guillemotleft" unicode="&#xab;" horiz-adv-x="568" 
d="M35 131v281l221 131v-205l-115 -63v-6l115 -63v-205zM312 131v281l221 131v-205l-115 -63v-6l115 -63v-205z" />
    <glyph glyph-name="logicalnot" unicode="&#xac;" horiz-adv-x="617" 
d="M45 444h527v-290h-156v142h-371v148z" />
    <glyph glyph-name="registered" unicode="&#xae;" horiz-adv-x="789" 
d="M581 679q86 -50 136 -136t50 -187t-50 -186.5t-136 -135.5t-187 -50t-186.5 50t-135.5 135.5t-50 186.5t50 187t135.5 136t186.5 50t187 -50zM540.5 103.5q67.5 39.5 107 106.5t39.5 146t-39.5 146.5t-107 107t-146.5 39.5t-146 -39.5t-106.5 -107t-39.5 -146.5
t39.5 -146t106.5 -106.5t146 -39.5t146.5 39.5zM497 305l77 -127h-128l-60 113h-43v-113h-111v358h190q66 0 103 -32t37 -90q0 -80 -65 -109zM343 453v-79h58q23 0 35 11t12 29t-12 28.5t-35 10.5h-58z" />
    <glyph glyph-name="macron" unicode="&#xaf;" horiz-adv-x="570" 
d="M535 740v-124h-500v124h500z" />
    <glyph glyph-name="degree" unicode="&#xb0;" horiz-adv-x="390" 
d="M102.5 375.5q-41.5 22.5 -65.5 63.5t-24 94t24 94t65.5 63.5t92.5 22.5t92.5 -22.5t65.5 -63.5t24 -94t-24 -94t-65.5 -63.5t-92.5 -22.5t-92.5 22.5zM249 477q20 22 20 56t-20 56t-54 22t-54 -22t-20 -56t20 -56t54 -22t54 22z" />
    <glyph glyph-name="plusminus" unicode="&#xb1;" horiz-adv-x="617" 
d="M387 446h185v-136h-185v-143h-157v143h-185v136h185v143h157v-143zM45 0v124h527v-124h-527z" />
    <glyph glyph-name="uni00B2" unicode="&#xb2;" horiz-adv-x="589" 
d="M242 432q-30 -7 -33 -19h354v-115h-552v19q0 103 62 154t158 74l73 17q31 7 45.5 15t14.5 19q0 22 -66 22q-65 0 -70 -42h-207q7 80 70.5 117t202.5 37q98 0 157 -12t88 -39.5t29 -75.5q0 -63 -42.5 -92t-120.5 -45z" />
    <glyph glyph-name="uni00B3" unicode="&#xb3;" horiz-adv-x="593" 
d="M478 514q47 -5 74 -27t27 -68q0 -48 -26.5 -78t-89 -44.5t-171.5 -14.5q-110 0 -171 15t-87 47t-29 87h207q2 -18 21 -26t59 -8q43 0 61.5 6.5t18.5 25.5q0 17 -15.5 23t-44.5 6h-102v101h101q28 0 43 5.5t15 22.5t-18 23.5t-59 6.5q-38 0 -56 -7t-19 -23h-193
q2 51 28.5 82.5t84.5 46t155 14.5t155.5 -13t86 -41.5t27.5 -76.5q0 -38 -21.5 -56.5t-61.5 -24.5v-4z" />
    <glyph glyph-name="acute" unicode="&#xb4;" horiz-adv-x="524" 
d="M131 761h358l-212 -157h-242z" />
    <glyph glyph-name="paragraph" unicode="&#xb6;" horiz-adv-x="774" 
d="M739 713v-897h-180v757h-80v-757h-180v455h-15q-130 0 -196 57t-66 164t66.5 164t197.5 57h453z" />
    <glyph glyph-name="periodcentered" unicode="&#xb7;" horiz-adv-x="388" 
d="M107.5 162q-39.5 23 -62.5 62.5t-23 86.5t23 86.5t62.5 62.5t86.5 23t86.5 -23t62.5 -62.5t23 -86.5t-23 -86.5t-62.5 -62.5t-86.5 -23t-86.5 23z" />
    <glyph glyph-name="cedilla" unicode="&#xb8;" horiz-adv-x="453" 
d="M35 -154h6q58 -18 145 -18q26 0 42.5 6t16.5 19t-16.5 19t-42.5 6q-20 0 -48 -2.5t-43 -5.5h-6v49l95 106h108l-65 -73q8 2 24 2q87 0 127 -23.5t40 -76.5q0 -59 -51.5 -83.5t-172.5 -24.5q-95 0 -159 18v82z" />
    <glyph glyph-name="uni00B9" unicode="&#xb9;" horiz-adv-x="359" 
d="M329 714v-416h-189v220h-132v120h46q56 0 82 19.5t36 56.5h157z" />
    <glyph glyph-name="ordmasculine" unicode="&#xba;" horiz-adv-x="544" 
d="M469.5 675q61.5 -45 61.5 -130q0 -86 -61.5 -130.5t-197.5 -44.5t-197.5 44.5t-61.5 130.5q0 85 61.5 130t197.5 45t197.5 -45zM345 545q0 62 -73 62t-73 -62q0 -63 73 -63t73 63zM13 0v124h518v-124h-518z" />
    <glyph glyph-name="guillemotright" unicode="&#xbb;" horiz-adv-x="555" 
d="M35 543l221 -131v-281l-221 -130v205l115 63v6l-115 63v205zM312 543l221 -131v-281l-221 -130v205l115 63v6l-115 63v205z" />
    <glyph glyph-name="questiondown" unicode="&#xbf;" horiz-adv-x="866" 
d="M287 542h298v-228h-298v228zM853 66q0 -99 -50.5 -155t-142 -77.5t-229.5 -21.5q-145 0 -236 19t-136.5 62.5t-45.5 119.5q0 56 28 89t93 56l98 34q48 17 54 55l2 13h296v-18q0 -44 -10.5 -70.5t-36 -44t-72.5 -32.5l-67 -21q-43 -13 -58.5 -22.5t-15.5 -27.5
q0 -20 23.5 -30.5t79.5 -10.5t87 18.5t31 64.5h308z" />
    <glyph glyph-name="Agrave" unicode="&#xc0;" horiz-adv-x="1054" 
d="M1068 0h-321l-41 90h-358l-41 -90h-321l344 714h394zM524 482l-93 -206h192l-93 206h-6zM403 772l-212 157h358l96 -157h-242z" />
    <glyph glyph-name="Aacute" unicode="&#xc1;" horiz-adv-x="1054" 
d="M1068 0h-321l-41 90h-358l-41 -90h-321l344 714h394zM524 482l-93 -206h192l-93 206h-6zM515 929h358l-212 -157h-242z" />
    <glyph glyph-name="Acircumflex" unicode="&#xc2;" horiz-adv-x="1054" 
d="M1068 0h-321l-41 90h-358l-41 -90h-321l344 714h394zM524 482l-93 -206h192l-93 206h-6zM859 772h-273l-56 71h-6l-56 -71h-273l140 147h384z" />
    <glyph glyph-name="Atilde" unicode="&#xc3;" horiz-adv-x="1054" 
d="M1068 0h-321l-41 90h-358l-41 -90h-321l344 714h394zM524 482l-93 -206h192l-93 206h-6zM603 767.5q-30 6.5 -73 18.5q-25 7 -49.5 12.5t-41.5 5.5q-18 0 -24.5 -8t-5.5 -24h-177q0 56 22 96t57.5 60.5t76.5 20.5q31 0 62 -6.5t73 -18.5q6 -2 37.5 -10t53.5 -8
q18 0 24.5 8t5.5 24h177q0 -56 -22.5 -96t-58.5 -60.5t-76 -20.5q-31 0 -61 6.5z" />
    <glyph glyph-name="Adieresis" unicode="&#xc4;" horiz-adv-x="1054" 
d="M1068 0h-321l-41 90h-358l-41 -90h-321l344 714h394zM524 482l-93 -206h192l-93 206h-6zM489 782h-260v124h260v-124zM825 782h-260v124h260v-124z" />
    <glyph glyph-name="Aring" unicode="&#xc5;" horiz-adv-x="1054" 
d="M1068 0h-321l-41 90h-358l-41 -90h-321l344 714h394zM524 482l-93 -206h192l-93 206h-6zM394 778.5q-53 37.5 -53 101.5t53 101.5t133 37.5t133 -37.5t53 -101.5t-53 -101.5t-133 -37.5t-133 37.5zM564 849q15 12 15 31t-15 31t-37 12t-37 -12t-15 -31t15 -31t37 -12
t37 12z" />
    <glyph glyph-name="AE" unicode="&#xc6;" horiz-adv-x="1470" 
d="M1000 277v-98h445v-179h-735v90h-307l-58 -90h-345l490 714h949v-182h-439v-90h413v-165h-413zM690 532l-166 -256h186v256h-20z" />
    <glyph glyph-name="Ccedilla" unicode="&#xc7;" horiz-adv-x="1070" 
d="M1048 305q-4 -157 -116 -240t-341 -91l-20 -22q8 2 24 2q87 0 127 -23.5t40 -76.5q0 -59 -51.5 -83.5t-172.5 -24.5q-95 0 -159 18v82h6q58 -18 145 -18q26 0 42.5 6t16.5 19t-16.5 19t-42.5 6q-20 0 -48 -2.5t-43 -5.5h-6v49l49 55q-232 10 -346 104t-114 279
q0 195 127.5 289.5t387.5 94.5q501 0 509 -315h-346q-10 95 -163 95q-94 0 -140.5 -42t-46.5 -122t46.5 -122t140.5 -42q88 0 124 29.5t41 82.5h346z" />
    <glyph glyph-name="Egrave" unicode="&#xc8;" horiz-adv-x="875" 
d="M844 532h-509v-90h483v-165h-483v-98h515v-179h-815v714h809v-182zM316 772l-212 157h358l96 -157h-242z" />
    <glyph glyph-name="Eacute" unicode="&#xc9;" horiz-adv-x="875" 
d="M844 532h-509v-90h483v-165h-483v-98h515v-179h-815v714h809v-182zM428 929h358l-212 -157h-242z" />
    <glyph glyph-name="Ecircumflex" unicode="&#xca;" horiz-adv-x="875" 
d="M844 532h-509v-90h483v-165h-483v-98h515v-179h-815v714h809v-182zM772 772h-273l-56 71h-6l-56 -71h-273l140 147h384z" />
    <glyph glyph-name="Edieresis" unicode="&#xcb;" horiz-adv-x="875" 
d="M844 532h-509v-90h483v-165h-483v-98h515v-179h-815v714h809v-182zM402 782h-260v124h260v-124zM738 782h-260v124h260v-124z" />
    <glyph glyph-name="Igrave" unicode="&#xcc;" horiz-adv-x="370" 
d="M335 714v-714h-300v714h300zM61 772l-212 157h358l96 -157h-242z" />
    <glyph glyph-name="Iacute" unicode="&#xcd;" horiz-adv-x="370" 
d="M335 714v-714h-300v714h300zM173 929h358l-212 -157h-242z" />
    <glyph glyph-name="Icircumflex" unicode="&#xce;" horiz-adv-x="370" 
d="M335 714v-714h-300v714h300zM517 772h-273l-56 71h-6l-56 -71h-273l140 147h384z" />
    <glyph glyph-name="Idieresis" unicode="&#xcf;" horiz-adv-x="370" 
d="M335 714v-714h-300v714h300zM147 782h-260v124h260v-124zM483 782h-260v124h260v-124z" />
    <glyph glyph-name="Eth" unicode="&#xd0;" horiz-adv-x="1035" 
d="M595 714q147 0 238.5 -35t135.5 -113.5t44 -208.5t-44 -208.5t-135.5 -113.5t-238.5 -35h-520v300h-70v116h70v298h520zM513 210q90 0 131 34t41 113t-41 113t-131 34h-138v-88h144v-116h-144v-90h138z" />
    <glyph glyph-name="Ntilde" unicode="&#xd1;" horiz-adv-x="1000" 
d="M683 340v374h282v-714h-341l-301 378h-6v-378h-282v714h345l297 -374h6zM576 767.5q-30 6.5 -73 18.5q-25 7 -49.5 12.5t-41.5 5.5q-18 0 -24.5 -8t-5.5 -24h-177q0 56 22 96t57.5 60.5t76.5 20.5q31 0 62 -6.5t73 -18.5q6 -2 37.5 -10t53.5 -8q18 0 24.5 8t5.5 24h177
q0 -56 -22.5 -96t-58.5 -60.5t-76 -20.5q-31 0 -61 6.5z" />
    <glyph glyph-name="Ograve" unicode="&#xd2;" horiz-adv-x="1092" 
d="M941 647q129 -94 129 -290t-129 -290t-395 -94t-395 94t-129 290t129 290t395 94t395 -94zM742 357q0 164 -196 164t-196 -164t196 -164t196 164zM422 772l-212 157h358l96 -157h-242z" />
    <glyph glyph-name="Oacute" unicode="&#xd3;" horiz-adv-x="1092" 
d="M941 647q129 -94 129 -290t-129 -290t-395 -94t-395 94t-129 290t129 290t395 94t395 -94zM742 357q0 164 -196 164t-196 -164t196 -164t196 164zM534 929h358l-212 -157h-242z" />
    <glyph glyph-name="Ocircumflex" unicode="&#xd4;" horiz-adv-x="1092" 
d="M941 647q129 -94 129 -290t-129 -290t-395 -94t-395 94t-129 290t129 290t395 94t395 -94zM742 357q0 164 -196 164t-196 -164t196 -164t196 164zM878 772h-273l-56 71h-6l-56 -71h-273l140 147h384z" />
    <glyph glyph-name="Otilde" unicode="&#xd5;" horiz-adv-x="1092" 
d="M941 647q129 -94 129 -290t-129 -290t-395 -94t-395 94t-129 290t129 290t395 94t395 -94zM742 357q0 164 -196 164t-196 -164t196 -164t196 164zM622 767.5q-30 6.5 -73 18.5q-25 7 -49.5 12.5t-41.5 5.5q-18 0 -24.5 -8t-5.5 -24h-177q0 56 22 96t57.5 60.5t76.5 20.5
q31 0 62 -6.5t73 -18.5q6 -2 37.5 -10t53.5 -8q18 0 24.5 8t5.5 24h177q0 -56 -22.5 -96t-58.5 -60.5t-76 -20.5q-31 0 -61 6.5z" />
    <glyph glyph-name="Odieresis" unicode="&#xd6;" horiz-adv-x="1092" 
d="M941 647q129 -94 129 -290t-129 -290t-395 -94t-395 94t-129 290t129 290t395 94t395 -94zM742 357q0 164 -196 164t-196 -164t196 -164t196 164zM508 782h-260v124h260v-124zM844 782h-260v124h260v-124z" />
    <glyph glyph-name="multiply" unicode="&#xd7;" horiz-adv-x="596" 
d="M448 584l103 -104l-151 -154l151 -154l-103 -104l-150 153l-150 -153l-103 104l151 154l-151 154l103 104l150 -153z" />
    <glyph glyph-name="Oslash" unicode="&#xd8;" horiz-adv-x="1092" 
d="M971 622q99 -93 99 -265q0 -196 -129 -290t-395 -94q-207 0 -332 57l-90 -70l-92 62l89 70q-99 93 -99 265q0 196 129 290t395 94q208 0 332 -57l90 70l92 -62zM364 281l286 224q-41 16 -104 16q-196 0 -196 -164q0 -45 14 -76zM742 357q0 45 -14 76l-286 -224
q41 -16 104 -16q196 0 196 164z" />
    <glyph glyph-name="Ugrave" unicode="&#xd9;" horiz-adv-x="994" 
d="M659 714h300v-402q0 -127 -54.5 -201.5t-155.5 -105.5t-252 -31t-252 31t-155.5 105.5t-54.5 201.5v402h300v-401q0 -66 40.5 -92.5t121.5 -26.5t121.5 26.5t40.5 92.5v401zM373 772l-212 157h358l96 -157h-242z" />
    <glyph glyph-name="Uacute" unicode="&#xda;" horiz-adv-x="994" 
d="M659 714h300v-402q0 -127 -54.5 -201.5t-155.5 -105.5t-252 -31t-252 31t-155.5 105.5t-54.5 201.5v402h300v-401q0 -66 40.5 -92.5t121.5 -26.5t121.5 26.5t40.5 92.5v401zM485 929h358l-212 -157h-242z" />
    <glyph glyph-name="Ucircumflex" unicode="&#xdb;" horiz-adv-x="994" 
d="M659 714h300v-402q0 -127 -54.5 -201.5t-155.5 -105.5t-252 -31t-252 31t-155.5 105.5t-54.5 201.5v402h300v-401q0 -66 40.5 -92.5t121.5 -26.5t121.5 26.5t40.5 92.5v401zM829 772h-273l-56 71h-6l-56 -71h-273l140 147h384z" />
    <glyph glyph-name="Udieresis" unicode="&#xdc;" horiz-adv-x="994" 
d="M659 714h300v-402q0 -127 -54.5 -201.5t-155.5 -105.5t-252 -31t-252 31t-155.5 105.5t-54.5 201.5v402h300v-401q0 -66 40.5 -92.5t121.5 -26.5t121.5 26.5t40.5 92.5v401zM459 782h-260v124h260v-124zM795 782h-260v124h260v-124z" />
    <glyph glyph-name="Yacute" unicode="&#xdd;" horiz-adv-x="968" 
d="M644 714h344l-354 -488v-226h-300v226l-354 488h345l159 -251zM473 929h358l-212 -157h-242z" />
    <glyph glyph-name="Thorn" unicode="&#xde;" horiz-adv-x="987" 
d="M639 624q119 0 188.5 -28t99.5 -84.5t30 -147.5q0 -88 -30.5 -143t-100 -82t-187.5 -27h-304v-112h-300v714h300v-90h304zM547 298q45 0 63.5 15.5t18.5 49.5q0 35 -18.5 51t-63.5 16h-212v-132h212z" />
    <glyph glyph-name="germandbls" unicode="&#xdf;" horiz-adv-x="970" 
d="M774 413q95 -9 136 -55.5t41 -131.5q0 -84 -35.5 -136t-127.5 -79t-258 -27q-35 0 -73.5 4t-56.5 10v179q50 -13 116 -13q56 0 93 18.5t37 60.5q0 43 -38 59t-116 16h-92v136h83q103 0 103 53q0 27 -29.5 39t-84.5 12q-66 0 -106 -24.5t-40 -99.5v-434h-296v432
q0 116 43.5 182t139 95t259.5 29q161 0 253.5 -23t129 -64t36.5 -101q0 -62 -31.5 -92t-85.5 -39v-6z" />
    <glyph glyph-name="agrave" unicode="&#xe0;" horiz-adv-x="878" 
d="M849 87q0 -30 3.5 -47.5t16.5 -33.5v-6h-291q-8 8 -14 22.5t-6 31.5v20q-34 -44 -105 -71t-163 -27q-116 0 -193.5 42t-77.5 137q0 90 54 131t148 48l254 19q38 3 53.5 10.5t15.5 25.5t-22.5 26t-66.5 8q-41 0 -67 -12.5t-29 -36.5h-304q5 110 107.5 151.5t286.5 41.5
q131 0 217 -13.5t134.5 -51t48.5 -107.5v-308zM553 248q-16 -9 -46 -13l-123 -20q-30 -5 -45 -16.5t-15 -33.5q0 -23 19 -33t55 -10q69 0 112 28.5t43 84.5v13zM322 604l-212 157h358l96 -157h-242z" />
    <glyph glyph-name="aacute" unicode="&#xe1;" horiz-adv-x="878" 
d="M849 87q0 -30 3.5 -47.5t16.5 -33.5v-6h-291q-8 8 -14 22.5t-6 31.5v20q-34 -44 -105 -71t-163 -27q-116 0 -193.5 42t-77.5 137q0 90 54 131t148 48l254 19q38 3 53.5 10.5t15.5 25.5t-22.5 26t-66.5 8q-41 0 -67 -12.5t-29 -36.5h-304q5 110 107.5 151.5t286.5 41.5
q131 0 217 -13.5t134.5 -51t48.5 -107.5v-308zM553 248q-16 -9 -46 -13l-123 -20q-30 -5 -45 -16.5t-15 -33.5q0 -23 19 -33t55 -10q69 0 112 28.5t43 84.5v13zM427 761h358l-212 -157h-242z" />
    <glyph glyph-name="acircumflex" unicode="&#xe2;" horiz-adv-x="878" 
d="M849 87q0 -30 3.5 -47.5t16.5 -33.5v-6h-291q-8 8 -14 22.5t-6 31.5v20q-34 -44 -105 -71t-163 -27q-116 0 -193.5 42t-77.5 137q0 90 54 131t148 48l254 19q38 3 53.5 10.5t15.5 25.5t-22.5 26t-66.5 8q-41 0 -67 -12.5t-29 -36.5h-304q5 110 107.5 151.5t286.5 41.5
q131 0 217 -13.5t134.5 -51t48.5 -107.5v-308zM553 248q-16 -9 -46 -13l-123 -20q-30 -5 -45 -16.5t-15 -33.5q0 -23 19 -33t55 -10q69 0 112 28.5t43 84.5v13zM781 604h-273l-56 71h-6l-56 -71h-273l140 147h384z" />
    <glyph glyph-name="atilde" unicode="&#xe3;" horiz-adv-x="878" 
d="M849 87q0 -30 3.5 -47.5t16.5 -33.5v-6h-291q-8 8 -14 22.5t-6 31.5v20q-34 -44 -105 -71t-163 -27q-116 0 -193.5 42t-77.5 137q0 90 54 131t148 48l254 19q38 3 53.5 10.5t15.5 25.5t-22.5 26t-66.5 8q-41 0 -67 -12.5t-29 -36.5h-304q5 110 107.5 151.5t286.5 41.5
q131 0 217 -13.5t134.5 -51t48.5 -107.5v-308zM553 248q-16 -9 -46 -13l-123 -20q-30 -5 -45 -16.5t-15 -33.5q0 -23 19 -33t55 -10q69 0 112 28.5t43 84.5v13zM532 593.5q-30 6.5 -73 18.5q-25 7 -49.5 12.5t-41.5 5.5q-18 0 -24.5 -8t-5.5 -24h-177q0 56 22 96t57.5 60.5
t76.5 20.5q31 0 62 -6.5t73 -18.5q6 -2 37.5 -10t53.5 -8q18 0 24.5 8t5.5 24h177q0 -56 -22.5 -96t-58.5 -60.5t-76 -20.5q-31 0 -61 6.5z" />
    <glyph glyph-name="adieresis" unicode="&#xe4;" horiz-adv-x="878" 
d="M849 87q0 -30 3.5 -47.5t16.5 -33.5v-6h-291q-8 8 -14 22.5t-6 31.5v20q-34 -44 -105 -71t-163 -27q-116 0 -193.5 42t-77.5 137q0 90 54 131t148 48l254 19q38 3 53.5 10.5t15.5 25.5t-22.5 26t-66.5 8q-41 0 -67 -12.5t-29 -36.5h-304q5 110 107.5 151.5t286.5 41.5
q131 0 217 -13.5t134.5 -51t48.5 -107.5v-308zM553 248q-16 -9 -46 -13l-123 -20q-30 -5 -45 -16.5t-15 -33.5q0 -23 19 -33t55 -10q69 0 112 28.5t43 84.5v13zM411 604h-260v124h260v-124zM747 604h-260v124h260v-124z" />
    <glyph glyph-name="aring" unicode="&#xe5;" horiz-adv-x="878" 
d="M849 87q0 -30 3.5 -47.5t16.5 -33.5v-6h-291q-8 8 -14 22.5t-6 31.5v20q-34 -44 -105 -71t-163 -27q-116 0 -193.5 42t-77.5 137q0 90 54 131t148 48l254 19q38 3 53.5 10.5t15.5 25.5t-22.5 26t-66.5 8q-41 0 -67 -12.5t-29 -36.5h-304q5 110 107.5 151.5t286.5 41.5
q131 0 217 -13.5t134.5 -51t48.5 -107.5v-308zM553 248q-16 -9 -46 -13l-123 -20q-30 -5 -45 -16.5t-15 -33.5q0 -23 19 -33t55 -10q69 0 112 28.5t43 84.5v13zM316 629.5q-53 37.5 -53 101.5t53 101.5t133 37.5t133 -37.5t53 -101.5t-53 -101.5t-133 -37.5t-133 37.5z
M486 700q15 12 15 31t-15 31t-37 12t-37 -12t-15 -31t15 -31t37 -12t37 12z" />
    <glyph glyph-name="ae" unicode="&#xe6;" horiz-adv-x="1386" 
d="M1364 217h-539q3 -49 31 -72.5t89 -23.5q58 0 82.5 16.5t33.5 33.5h299q-5 -87 -95.5 -141t-319.5 -54q-101 0 -173 25.5t-105 72.5q-39 -44 -122.5 -71t-214.5 -27q-311 0 -311 179q0 90 54 131t148 48l254 19q38 3 53.5 10.5t15.5 25.5t-22.5 26t-66.5 8
q-41 0 -67 -12.5t-29 -36.5h-304q7 106 111 149.5t283 43.5q91 0 160 -14.5t102 -44.5q33 28 95 43.5t139 15.5q221 0 321.5 -75.5t100.5 -220.5q0 -27 -3 -54zM863.5 404q-27.5 -18 -35.5 -55h234q-8 37 -35.5 55t-81.5 18t-81.5 -18zM553 248q-16 -9 -46 -13l-123 -20
q-30 -5 -45 -16.5t-15 -33.5q0 -23 19 -33t55 -10q69 0 112 28.5t43 84.5v13z" />
    <glyph glyph-name="ccedilla" unicode="&#xe7;" horiz-adv-x="908" 
d="M889 224q-2 -111 -92.5 -174.5t-288.5 -72.5l-22 -25q8 2 24 2q87 0 127 -23.5t40 -76.5q0 -59 -51.5 -83.5t-172.5 -24.5q-95 0 -159 18v82h6q58 -18 145 -18q26 0 42.5 6t16.5 19t-16.5 19t-42.5 6q-20 0 -48 -2.5t-43 -5.5h-6v49l52 58q-198 9 -289.5 83.5
t-91.5 210.5q0 145 103.5 220.5t328.5 75.5q425 0 437 -243h-316q-3 23 -29 40.5t-92 17.5q-127 0 -127 -111q0 -51 30.5 -80.5t96.5 -29.5t92.5 18.5t28.5 44.5h317z" />
    <glyph glyph-name="egrave" unicode="&#xe8;" 
d="M880 217h-558q3 -49 33.5 -72.5t95.5 -23.5q95 0 125 50h300q-6 -86 -99.5 -140.5t-325.5 -54.5q-226 0 -329 75t-103 221q0 144 103.5 219.5t328.5 75.5t328.5 -75.5t103.5 -220.5q0 -27 -3 -54zM363 404q-30 -18 -38 -55h252q-8 37 -38 55t-88 18t-88 -18zM324 604
l-212 157h358l96 -157h-242z" />
    <glyph glyph-name="eacute" unicode="&#xe9;" 
d="M880 217h-558q3 -49 33.5 -72.5t95.5 -23.5q95 0 125 50h300q-6 -86 -99.5 -140.5t-325.5 -54.5q-226 0 -329 75t-103 221q0 144 103.5 219.5t328.5 75.5t328.5 -75.5t103.5 -220.5q0 -27 -3 -54zM363 404q-30 -18 -38 -55h252q-8 37 -38 55t-88 18t-88 -18zM429 761h358
l-212 -157h-242z" />
    <glyph glyph-name="ecircumflex" unicode="&#xea;" 
d="M880 217h-558q3 -49 33.5 -72.5t95.5 -23.5q95 0 125 50h300q-6 -86 -99.5 -140.5t-325.5 -54.5q-226 0 -329 75t-103 221q0 144 103.5 219.5t328.5 75.5t328.5 -75.5t103.5 -220.5q0 -27 -3 -54zM363 404q-30 -18 -38 -55h252q-8 37 -38 55t-88 18t-88 -18zM783 604
h-273l-56 71h-6l-56 -71h-273l140 147h384z" />
    <glyph glyph-name="edieresis" unicode="&#xeb;" 
d="M880 217h-558q3 -49 33.5 -72.5t95.5 -23.5q95 0 125 50h300q-6 -86 -99.5 -140.5t-325.5 -54.5q-226 0 -329 75t-103 221q0 144 103.5 219.5t328.5 75.5t328.5 -75.5t103.5 -220.5q0 -27 -3 -54zM363 404q-30 -18 -38 -55h252q-8 37 -38 55t-88 18t-88 -18zM413 604
h-260v124h260v-124zM749 604h-260v124h260v-124z" />
    <glyph glyph-name="igrave" unicode="&#xec;" horiz-adv-x="356" 
d="M326 0h-296v542h296v-542zM51 604l-212 157h358l96 -157h-242z" />
    <glyph glyph-name="iacute" unicode="&#xed;" horiz-adv-x="356" 
d="M326 0h-296v542h296v-542zM156 761h358l-212 -157h-242z" />
    <glyph glyph-name="icircumflex" unicode="&#xee;" horiz-adv-x="356" 
d="M326 0h-296v542h296v-542zM510 604h-273l-56 71h-6l-56 -71h-273l140 147h384z" />
    <glyph glyph-name="idieresis" unicode="&#xef;" horiz-adv-x="356" 
d="M326 0h-296v542h296v-542zM140 604h-260v124h260v-124zM476 604h-260v124h260v-124z" />
    <glyph glyph-name="eth" unicode="&#xf0;" horiz-adv-x="911" 
d="M567 682q325 -110 325 -362q0 -127 -52.5 -203t-152 -108.5t-250.5 -32.5q-126 0 -215.5 18t-146 73t-56.5 159q0 149 106.5 200.5t271.5 51.5q40 0 88.5 -10t82.5 -31l4 2q-17 34 -75.5 63t-157.5 51l-126 -72l-70 48l79 45q-82 11 -140 16l110 165q144 -13 272 -43
l118 67l70 -48zM534.5 166q33.5 19 33.5 61q0 40 -34 60t-88 20t-88 -20t-34 -60q0 -42 33.5 -61t88.5 -19t88.5 19z" />
    <glyph glyph-name="ntilde" unicode="&#xf1;" horiz-adv-x="858" 
d="M321 542v-71h6q45 40 104 62.5t145 22.5q118 0 185 -53t67 -166v-337h-296v255q0 96 -92 96q-52 0 -83 -27t-31 -89v-235h-296v542h291zM512 593.5q-30 6.5 -73 18.5q-25 7 -49.5 12.5t-41.5 5.5q-18 0 -24.5 -8t-5.5 -24h-177q0 56 22 96t57.5 60.5t76.5 20.5
q31 0 62 -6.5t73 -18.5q6 -2 37.5 -10t53.5 -8q18 0 24.5 8t5.5 24h177q0 -56 -22.5 -96t-58.5 -60.5t-76 -20.5q-31 0 -61 6.5z" />
    <glyph glyph-name="ograve" unicode="&#xf2;" 
d="M779.5 491.5q103.5 -75.5 103.5 -219.5q0 -146 -103 -221t-329 -75t-329 75t-103 221q0 144 103.5 219.5t328.5 75.5t328.5 -75.5zM547.5 191q30.5 30 30.5 81t-30.5 80.5t-96.5 29.5t-96.5 -29.5t-30.5 -80.5t30.5 -81t96.5 -30t96.5 30zM324 604l-212 157h358l96 -157
h-242z" />
    <glyph glyph-name="oacute" unicode="&#xf3;" 
d="M779.5 491.5q103.5 -75.5 103.5 -219.5q0 -146 -103 -221t-329 -75t-329 75t-103 221q0 144 103.5 219.5t328.5 75.5t328.5 -75.5zM547.5 191q30.5 30 30.5 81t-30.5 80.5t-96.5 29.5t-96.5 -29.5t-30.5 -80.5t30.5 -81t96.5 -30t96.5 30zM429 761h358l-212 -157h-242z
" />
    <glyph glyph-name="ocircumflex" unicode="&#xf4;" 
d="M779.5 491.5q103.5 -75.5 103.5 -219.5q0 -146 -103 -221t-329 -75t-329 75t-103 221q0 144 103.5 219.5t328.5 75.5t328.5 -75.5zM547.5 191q30.5 30 30.5 81t-30.5 80.5t-96.5 29.5t-96.5 -29.5t-30.5 -80.5t30.5 -81t96.5 -30t96.5 30zM783 604h-273l-56 71h-6
l-56 -71h-273l140 147h384z" />
    <glyph glyph-name="otilde" unicode="&#xf5;" 
d="M779.5 491.5q103.5 -75.5 103.5 -219.5q0 -146 -103 -221t-329 -75t-329 75t-103 221q0 144 103.5 219.5t328.5 75.5t328.5 -75.5zM547.5 191q30.5 30 30.5 81t-30.5 80.5t-96.5 29.5t-96.5 -29.5t-30.5 -80.5t30.5 -81t96.5 -30t96.5 30zM534 593.5q-30 6.5 -73 18.5
q-25 7 -49.5 12.5t-41.5 5.5q-18 0 -24.5 -8t-5.5 -24h-177q0 56 22 96t57.5 60.5t76.5 20.5q31 0 62 -6.5t73 -18.5q6 -2 37.5 -10t53.5 -8q18 0 24.5 8t5.5 24h177q0 -56 -22.5 -96t-58.5 -60.5t-76 -20.5q-31 0 -61 6.5z" />
    <glyph glyph-name="odieresis" unicode="&#xf6;" 
d="M779.5 491.5q103.5 -75.5 103.5 -219.5q0 -146 -103 -221t-329 -75t-329 75t-103 221q0 144 103.5 219.5t328.5 75.5t328.5 -75.5zM547.5 191q30.5 30 30.5 81t-30.5 80.5t-96.5 29.5t-96.5 -29.5t-30.5 -80.5t30.5 -81t96.5 -30t96.5 30zM413 604h-260v124h260v-124z
M749 604h-260v124h260v-124z" />
    <glyph glyph-name="divide" unicode="&#xf7;" horiz-adv-x="618" 
d="M241 487q-29 29 -29 69t29 68.5t69 28.5t68.5 -28.5t28.5 -68.5t-28.5 -69t-68.5 -29t-69 29zM45 400h528v-148h-528v148zM241 27.5q-29 28.5 -29 68.5q0 41 29 69.5t69 28.5t68.5 -29t28.5 -69t-28.5 -68.5t-68.5 -28.5t-69 28.5z" />
    <glyph glyph-name="oslash" unicode="&#xf8;" 
d="M797 478q86 -72 86 -206q0 -146 -103 -221t-329 -75q-170 0 -272 44l-72 -54l-73 46l71 53q-86 72 -86 207q0 144 103.5 219.5t328.5 75.5q171 0 271 -44l73 54l73 -46zM330 231l188 140q-28 11 -67 11q-66 0 -96.5 -29.5t-30.5 -80.5q0 -21 6 -41zM547.5 191
q30.5 30 30.5 81q0 20 -5 40l-188 -140q27 -11 66 -11q66 0 96.5 30z" />
    <glyph glyph-name="ugrave" unicode="&#xf9;" horiz-adv-x="858" 
d="M537 0v71h-6q-45 -40 -104 -62.5t-145 -22.5q-118 0 -185 53t-67 166v337h296v-255q0 -96 92 -96q52 0 83 27t31 89v235h296v-542h-291zM302 604l-212 157h358l96 -157h-242z" />
    <glyph glyph-name="uacute" unicode="&#xfa;" horiz-adv-x="858" 
d="M537 0v71h-6q-45 -40 -104 -62.5t-145 -22.5q-118 0 -185 53t-67 166v337h296v-255q0 -96 92 -96q52 0 83 27t31 89v235h296v-542h-291zM407 761h358l-212 -157h-242z" />
    <glyph glyph-name="ucircumflex" unicode="&#xfb;" horiz-adv-x="858" 
d="M537 0v71h-6q-45 -40 -104 -62.5t-145 -22.5q-118 0 -185 53t-67 166v337h296v-255q0 -96 92 -96q52 0 83 27t31 89v235h296v-542h-291zM761 604h-273l-56 71h-6l-56 -71h-273l140 147h384z" />
    <glyph glyph-name="udieresis" unicode="&#xfc;" horiz-adv-x="858" 
d="M537 0v71h-6q-45 -40 -104 -62.5t-145 -22.5q-118 0 -185 53t-67 166v337h296v-255q0 -96 92 -96q52 0 83 27t31 89v235h296v-542h-291zM391 604h-260v124h260v-124zM727 604h-260v124h260v-124z" />
    <glyph glyph-name="yacute" unicode="&#xfd;" horiz-adv-x="878" 
d="M623 23q-50 -98 -84.5 -140.5t-92.5 -60.5t-172 -18h-187v211h109q39 0 49 2t12 8l1 3l-268 514h332l114 -286h6l114 286h332zM417 761h358l-212 -157h-242z" />
    <glyph glyph-name="thorn" unicode="&#xfe;" horiz-adv-x="909" 
d="M326 56v-238h-296v906h296v-248h6q42 40 96.5 60t129.5 20q157 0 244.5 -74.5t87.5 -215.5q0 -142 -87 -216t-245 -74q-75 0 -129.5 20t-96.5 60h-6zM347.5 341q-30.5 -30 -30.5 -75t30.5 -75t106.5 -30q131 0 131 105t-131 105q-76 0 -106.5 -30z" />
    <glyph glyph-name="ydieresis" unicode="&#xff;" horiz-adv-x="878" 
d="M623 23q-50 -98 -84.5 -140.5t-92.5 -60.5t-172 -18h-187v211h109q39 0 49 2t12 8l1 3l-268 514h332l114 -286h6l114 286h332zM401 604h-260v124h260v-124zM737 604h-260v124h260v-124z" />
    <glyph glyph-name="Amacron" unicode="&#x100;" horiz-adv-x="1054" 
d="M1068 0h-321l-41 90h-358l-41 -90h-321l344 714h394zM524 482l-93 -206h192l-93 206h-6zM777 918v-124h-500v124h500z" />
    <glyph glyph-name="amacron" unicode="&#x101;" horiz-adv-x="878" 
d="M849 87q0 -30 3.5 -47.5t16.5 -33.5v-6h-291q-8 8 -14 22.5t-6 31.5v20q-34 -44 -105 -71t-163 -27q-116 0 -193.5 42t-77.5 137q0 90 54 131t148 48l254 19q38 3 53.5 10.5t15.5 25.5t-22.5 26t-66.5 8q-41 0 -67 -12.5t-29 -36.5h-304q5 110 107.5 151.5t286.5 41.5
q131 0 217 -13.5t134.5 -51t48.5 -107.5v-308zM553 248q-16 -9 -46 -13l-123 -20q-30 -5 -45 -16.5t-15 -33.5q0 -23 19 -33t55 -10q69 0 112 28.5t43 84.5v13zM699 740v-124h-500v124h500z" />
    <glyph glyph-name="Abreve" unicode="&#x102;" horiz-adv-x="1054" 
d="M1068 0h-321l-41 90h-358l-41 -90h-321l344 714h394zM524 482l-93 -206h192l-93 206h-6zM819 938q-9 -87 -88.5 -128t-203.5 -41t-203.5 41t-88.5 128h221q7 -37 71 -37t71 37h221z" />
    <glyph glyph-name="abreve" unicode="&#x103;" horiz-adv-x="878" 
d="M849 87q0 -30 3.5 -47.5t16.5 -33.5v-6h-291q-8 8 -14 22.5t-6 31.5v20q-34 -44 -105 -71t-163 -27q-116 0 -193.5 42t-77.5 137q0 90 54 131t148 48l254 19q38 3 53.5 10.5t15.5 25.5t-22.5 26t-66.5 8q-41 0 -67 -12.5t-29 -36.5h-304q5 110 107.5 151.5t286.5 41.5
q131 0 217 -13.5t134.5 -51t48.5 -107.5v-308zM553 248q-16 -9 -46 -13l-123 -20q-30 -5 -45 -16.5t-15 -33.5q0 -23 19 -33t55 -10q69 0 112 28.5t43 84.5v13zM741 761q-9 -87 -88.5 -128t-203.5 -41t-203.5 41t-88.5 128h221q7 -37 71 -37t71 37h221z" />
    <glyph glyph-name="Aogonek" unicode="&#x104;" horiz-adv-x="1054" 
d="M974.5 -121q12.5 -8 29.5 -8q25 0 37 2t27 7v-124q-47 -11 -116 -11q-106 0 -164.5 28.5t-58.5 94.5q0 44 39.5 77.5t111.5 54.5h-133l-41 90h-358l-41 -90h-321l344 714h394l344 -714q-56 -19 -81 -44t-25 -51q0 -18 12.5 -26zM524 482l-93 -206h192l-93 206h-6z" />
    <glyph glyph-name="aogonek" unicode="&#x105;" horiz-adv-x="878" 
d="M869 0q-56 -19 -81 -44t-25 -51q0 -34 47 -34q22 0 32.5 2t26.5 7v-124q-47 -11 -116 -11q-105 0 -159 28t-54 95q0 44 37 77.5t105 54.5h-104q-8 8 -14 22.5t-6 31.5v20q-34 -44 -105 -71t-163 -27q-116 0 -193.5 42t-77.5 137q0 90 54 131t148 48l254 19
q38 3 53.5 10.5t15.5 25.5t-22.5 26t-66.5 8q-41 0 -67 -12.5t-29 -36.5h-304q5 110 107.5 151.5t286.5 41.5q131 0 217 -13.5t134.5 -51t48.5 -107.5v-308q0 -30 3.5 -47.5t16.5 -33.5v-6zM553 248q-16 -9 -46 -13l-123 -20q-30 -5 -45 -16.5t-15 -33.5q0 -23 19 -33
t55 -10q69 0 112 28.5t43 84.5v13z" />
    <glyph glyph-name="Cacute" unicode="&#x106;" horiz-adv-x="1070" 
d="M700 426q-10 95 -163 95q-94 0 -140.5 -42t-46.5 -122t46.5 -122t140.5 -42q88 0 124 29.5t41 82.5h346q-4 -166 -129 -249t-382 -83q-260 0 -387.5 94.5t-127.5 289.5t127.5 289.5t387.5 94.5q501 0 509 -315h-346zM525 929h358l-212 -157h-242z" />
    <glyph glyph-name="cacute" unicode="&#x107;" horiz-adv-x="908" 
d="M543.5 179.5q26.5 18.5 28.5 44.5h317q-3 -248 -438 -248q-225 0 -328.5 75t-103.5 220t103.5 220.5t328.5 75.5q425 0 437 -243h-316q-3 23 -29 40.5t-92 17.5q-127 0 -127 -111q0 -51 30.5 -80.5t96.5 -29.5t92.5 18.5zM429 761h358l-212 -157h-242z" />
    <glyph glyph-name="Ccircumflex" unicode="&#x108;" horiz-adv-x="1070" 
d="M700 426q-10 95 -163 95q-94 0 -140.5 -42t-46.5 -122t46.5 -122t140.5 -42q88 0 124 29.5t41 82.5h346q-4 -166 -129 -249t-382 -83q-260 0 -387.5 94.5t-127.5 289.5t127.5 289.5t387.5 94.5q501 0 509 -315h-346zM869 772h-273l-56 71h-6l-56 -71h-273l140 147h384z
" />
    <glyph glyph-name="ccircumflex" unicode="&#x109;" horiz-adv-x="908" 
d="M543.5 179.5q26.5 18.5 28.5 44.5h317q-3 -248 -438 -248q-225 0 -328.5 75t-103.5 220t103.5 220.5t328.5 75.5q425 0 437 -243h-316q-3 23 -29 40.5t-92 17.5q-127 0 -127 -111q0 -51 30.5 -80.5t96.5 -29.5t92.5 18.5zM783 604h-273l-56 71h-6l-56 -71h-273l140 147
h384z" />
    <glyph glyph-name="Cdotaccent" unicode="&#x10a;" horiz-adv-x="1070" 
d="M700 426q-10 95 -163 95q-94 0 -140.5 -42t-46.5 -122t46.5 -122t140.5 -42q88 0 124 29.5t41 82.5h346q-4 -166 -129 -249t-382 -83q-260 0 -387.5 94.5t-127.5 289.5t127.5 289.5t387.5 94.5q501 0 509 -315h-346zM687 782h-300v124h300v-124z" />
    <glyph glyph-name="cdotaccent" unicode="&#x10b;" horiz-adv-x="908" 
d="M543.5 179.5q26.5 18.5 28.5 44.5h317q-3 -248 -438 -248q-225 0 -328.5 75t-103.5 220t103.5 220.5t328.5 75.5q425 0 437 -243h-316q-3 23 -29 40.5t-92 17.5q-127 0 -127 -111q0 -51 30.5 -80.5t96.5 -29.5t92.5 18.5zM601 604h-300v124h300v-124z" />
    <glyph glyph-name="Ccaron" unicode="&#x10c;" horiz-adv-x="1070" 
d="M700 426q-10 95 -163 95q-94 0 -140.5 -42t-46.5 -122t46.5 -122t140.5 -42q88 0 124 29.5t41 82.5h346q-4 -166 -129 -249t-382 -83q-260 0 -387.5 94.5t-127.5 289.5t127.5 289.5t387.5 94.5q501 0 509 -315h-346zM540 858l56 71h273l-140 -147h-384l-140 147h273
l56 -71h6z" />
    <glyph glyph-name="ccaron" unicode="&#x10d;" horiz-adv-x="908" 
d="M543.5 179.5q26.5 18.5 28.5 44.5h317q-3 -248 -438 -248q-225 0 -328.5 75t-103.5 220t103.5 220.5t328.5 75.5q425 0 437 -243h-316q-3 23 -29 40.5t-92 17.5q-127 0 -127 -111q0 -51 30.5 -80.5t96.5 -29.5t92.5 18.5zM454 680l56 71h273l-140 -147h-384l-140 147h273
l56 -71h6z" />
    <glyph glyph-name="Dcaron" unicode="&#x10e;" horiz-adv-x="995" 
d="M555 714q147 0 238.5 -35t135.5 -113.5t44 -208.5t-44 -208.5t-135.5 -113.5t-238.5 -35h-520v714h520zM335 504v-294h138q90 0 131 34t41 113t-41 113t-131 34h-138zM467 858l56 71h273l-140 -147h-384l-140 147h273l56 -71h6z" />
    <glyph glyph-name="dcaron" unicode="&#x10f;" horiz-adv-x="1172" 
d="M583 476v248h296v-724h-291v60h-6q-44 -44 -99.5 -64t-131.5 -20q-157 0 -244.5 74.5t-87.5 215.5q0 142 87 216t245 74q75 0 129.5 -20t96.5 -60h6zM1152 639q0 -109 -55.5 -156t-176.5 -47v80q59 0 83.5 15t24.5 51h-108v142h232v-85zM561.5 191q30.5 30 30.5 75
t-30.5 75t-106.5 30q-131 0 -131 -105t131 -105q76 0 106.5 30z" />
    <glyph glyph-name="Dcroat" unicode="&#x110;" horiz-adv-x="1035" 
d="M595 714q147 0 238.5 -35t135.5 -113.5t44 -208.5t-44 -208.5t-135.5 -113.5t-238.5 -35h-520v300h-70v116h70v298h520zM513 210q90 0 131 34t41 113t-41 113t-131 34h-138v-88h144v-116h-144v-90h138z" />
    <glyph glyph-name="dcroat" unicode="&#x111;" horiz-adv-x="941" 
d="M879 679h70v-110h-70v-569h-291v60h-6q-44 -44 -99.5 -64t-131.5 -20q-157 0 -244.5 74.5t-87.5 215.5q0 142 87 216t245 74q75 0 129.5 -20t96.5 -60h6v93h-135v110h135v45h296v-45zM561.5 191q30.5 30 30.5 75t-30.5 75t-106.5 30q-131 0 -131 -105t131 -105
q76 0 106.5 30z" />
    <glyph glyph-name="Emacron" unicode="&#x112;" horiz-adv-x="875" 
d="M844 532h-509v-90h483v-165h-483v-98h515v-179h-815v714h809v-182zM690 918v-124h-500v124h500z" />
    <glyph glyph-name="emacron" unicode="&#x113;" 
d="M880 217h-558q3 -49 33.5 -72.5t95.5 -23.5q95 0 125 50h300q-6 -86 -99.5 -140.5t-325.5 -54.5q-226 0 -329 75t-103 221q0 144 103.5 219.5t328.5 75.5t328.5 -75.5t103.5 -220.5q0 -27 -3 -54zM363 404q-30 -18 -38 -55h252q-8 37 -38 55t-88 18t-88 -18zM701 740
v-124h-500v124h500z" />
    <glyph glyph-name="Ebreve" unicode="&#x114;" horiz-adv-x="875" 
d="M844 532h-509v-90h483v-165h-483v-98h515v-179h-815v714h809v-182zM732 938q-9 -87 -88.5 -128t-203.5 -41t-203.5 41t-88.5 128h221q7 -37 71 -37t71 37h221z" />
    <glyph glyph-name="ebreve" unicode="&#x115;" 
d="M880 217h-558q3 -49 33.5 -72.5t95.5 -23.5q95 0 125 50h300q-6 -86 -99.5 -140.5t-325.5 -54.5q-226 0 -329 75t-103 221q0 144 103.5 219.5t328.5 75.5t328.5 -75.5t103.5 -220.5q0 -27 -3 -54zM363 404q-30 -18 -38 -55h252q-8 37 -38 55t-88 18t-88 -18zM743 761
q-9 -87 -88.5 -128t-203.5 -41t-203.5 41t-88.5 128h221q7 -37 71 -37t71 37h221z" />
    <glyph glyph-name="Edotaccent" unicode="&#x116;" horiz-adv-x="875" 
d="M844 532h-509v-90h483v-165h-483v-98h515v-179h-815v714h809v-182zM590 782h-300v124h300v-124z" />
    <glyph glyph-name="edotaccent" unicode="&#x117;" 
d="M880 217h-558q3 -49 33.5 -72.5t95.5 -23.5q95 0 125 50h300q-6 -86 -99.5 -140.5t-325.5 -54.5q-226 0 -329 75t-103 221q0 144 103.5 219.5t328.5 75.5t328.5 -75.5t103.5 -220.5q0 -27 -3 -54zM363 404q-30 -18 -38 -55h252q-8 37 -38 55t-88 18t-88 -18zM601 604
h-300v124h300v-124z" />
    <glyph glyph-name="Eogonek" unicode="&#x118;" horiz-adv-x="875" 
d="M757.5 -121q12.5 -8 29.5 -8q25 0 37 2t27 7v-124q-47 -11 -116 -11q-106 0 -164.5 28.5t-58.5 94.5q0 44 39.5 77.5t111.5 54.5h-628v714h809v-182h-509v-90h483v-165h-483v-98h515v-179h1q-56 -19 -81 -44t-25 -51q0 -18 12.5 -26z" />
    <glyph glyph-name="eogonek" unicode="&#x119;" 
d="M880 217h-558q3 -49 33.5 -72.5t95.5 -23.5q95 0 125 50h300q-4 -58 -46 -102.5t-139 -68.5q-55 -19 -79.5 -44t-24.5 -51q0 -18 12.5 -26t29.5 -8q25 0 37 2t27 7v-124q-47 -11 -116 -11q-105 0 -159 28t-54 95q0 66 82 108q-223 1 -325 76t-102 220q0 144 103.5 219.5
t328.5 75.5t328.5 -75.5t103.5 -220.5q0 -27 -3 -54zM363 404q-30 -18 -38 -55h252q-8 37 -38 55t-88 18t-88 -18z" />
    <glyph glyph-name="Ecaron" unicode="&#x11a;" horiz-adv-x="875" 
d="M844 532h-509v-90h483v-165h-483v-98h515v-179h-815v714h809v-182zM443 858l56 71h273l-140 -147h-384l-140 147h273l56 -71h6z" />
    <glyph glyph-name="ecaron" unicode="&#x11b;" 
d="M880 217h-558q3 -49 33.5 -72.5t95.5 -23.5q95 0 125 50h300q-6 -86 -99.5 -140.5t-325.5 -54.5q-226 0 -329 75t-103 221q0 144 103.5 219.5t328.5 75.5t328.5 -75.5t103.5 -220.5q0 -27 -3 -54zM363 404q-30 -18 -38 -55h252q-8 37 -38 55t-88 18t-88 -18zM454 680
l56 71h273l-140 -147h-384l-140 147h273l56 -71h6z" />
    <glyph glyph-name="Gcircumflex" unicode="&#x11c;" horiz-adv-x="1085" 
d="M577 239v162h478v-401h-210v63q-103 -90 -296 -90q-269 0 -398 94.5t-129 290.5q0 195 128.5 289t392.5 94q258 0 380.5 -74.5t128.5 -208.5h-345q-27 63 -162 63q-195 0 -195 -164q0 -92 48 -136t153 -44q58 0 99 12t61.5 27t20.5 23h-155zM875 772h-273l-56 71h-6
l-56 -71h-273l140 147h384z" />
    <glyph glyph-name="gcircumflex" unicode="&#x11d;" horiz-adv-x="907" 
d="M586 542h291v-500q0 -85 -29 -134.5t-120.5 -76.5t-274.5 -27q-174 0 -267 27t-125 69t-35 100h314q3 -24 25 -37.5t88 -13.5q56 0 83.5 9t36 28t8.5 56v77h-6q-77 -75 -225 -75q-158 0 -244.5 64.5t-86.5 191.5q0 128 86.5 192t244.5 64q148 0 230 -76h6v62zM589 300
q0 83 -136 83q-129 0 -129 -83t129 -83q136 0 136 83zM780 604h-273l-56 71h-6l-56 -71h-273l140 147h384z" />
    <glyph glyph-name="Gbreve" unicode="&#x11e;" horiz-adv-x="1085" 
d="M577 239v162h478v-401h-210v63q-103 -90 -296 -90q-269 0 -398 94.5t-129 290.5q0 195 128.5 289t392.5 94q258 0 380.5 -74.5t128.5 -208.5h-345q-27 63 -162 63q-195 0 -195 -164q0 -92 48 -136t153 -44q58 0 99 12t61.5 27t20.5 23h-155zM835 938q-9 -87 -88.5 -128
t-203.5 -41t-203.5 41t-88.5 128h221q7 -37 71 -37t71 37h221z" />
    <glyph glyph-name="gbreve" unicode="&#x11f;" horiz-adv-x="907" 
d="M586 542h291v-500q0 -85 -29 -134.5t-120.5 -76.5t-274.5 -27q-174 0 -267 27t-125 69t-35 100h314q3 -24 25 -37.5t88 -13.5q56 0 83.5 9t36 28t8.5 56v77h-6q-77 -75 -225 -75q-158 0 -244.5 64.5t-86.5 191.5q0 128 86.5 192t244.5 64q148 0 230 -76h6v62zM589 300
q0 83 -136 83q-129 0 -129 -83t129 -83q136 0 136 83zM740 761q-9 -87 -88.5 -128t-203.5 -41t-203.5 41t-88.5 128h221q7 -37 71 -37t71 37h221z" />
    <glyph glyph-name="Gdotaccent" unicode="&#x120;" horiz-adv-x="1085" 
d="M577 239v162h478v-401h-210v63q-103 -90 -296 -90q-269 0 -398 94.5t-129 290.5q0 195 128.5 289t392.5 94q258 0 380.5 -74.5t128.5 -208.5h-345q-27 63 -162 63q-195 0 -195 -164q0 -92 48 -136t153 -44q58 0 99 12t61.5 27t20.5 23h-155zM693 782h-300v124h300v-124z
" />
    <glyph glyph-name="gdotaccent" unicode="&#x121;" horiz-adv-x="907" 
d="M586 542h291v-500q0 -85 -29 -134.5t-120.5 -76.5t-274.5 -27q-174 0 -267 27t-125 69t-35 100h314q3 -24 25 -37.5t88 -13.5q56 0 83.5 9t36 28t8.5 56v77h-6q-77 -75 -225 -75q-158 0 -244.5 64.5t-86.5 191.5q0 128 86.5 192t244.5 64q148 0 230 -76h6v62zM589 300
q0 83 -136 83q-129 0 -129 -83t129 -83q136 0 136 83zM598 604h-300v124h300v-124z" />
    <glyph glyph-name="uni0122" unicode="&#x122;" horiz-adv-x="1085" 
d="M577 239v162h478v-401h-210v63q-103 -90 -296 -90q-269 0 -398 94.5t-129 290.5q0 195 128.5 289t392.5 94q258 0 380.5 -74.5t128.5 -208.5h-345q-27 63 -162 63q-195 0 -195 -164q0 -92 48 -136t153 -44q58 0 99 12t61.5 27t20.5 23h-155zM699 -168q0 -45 -17.5 -73
t-82.5 -45.5t-200 -17.5v62q62 0 90 6.5t35 17.5t7 31h-132v124h300v-105z" />
    <glyph glyph-name="uni0123" unicode="&#x123;" horiz-adv-x="907" 
d="M298 671q0 74 27 113.5t91 55.5t182 16v-62q-75 0 -103.5 -17.5t-28.5 -48.5h132v-124h-300v67zM586 542h291v-500q0 -85 -29 -134.5t-120.5 -76.5t-274.5 -27q-174 0 -267 27t-125 69t-35 100h314q3 -24 25 -37.5t88 -13.5q56 0 83.5 9t36 28t8.5 56v77h-6
q-77 -75 -225 -75q-158 0 -244.5 64.5t-86.5 191.5q0 128 86.5 192t244.5 64q148 0 230 -76h6v62zM589 300q0 83 -136 83q-129 0 -129 -83t129 -83q136 0 136 83z" />
    <glyph glyph-name="Hcircumflex" unicode="&#x124;" horiz-adv-x="1000" 
d="M665 465v249h300v-714h-300v257h-330v-257h-300v714h300v-249h330zM832 772h-273l-56 71h-6l-56 -71h-273l140 147h384z" />
    <glyph glyph-name="hcircumflex" unicode="&#x125;" horiz-adv-x="858" 
d="M761 503q67 -53 67 -166v-337h-296v255q0 96 -92 96q-52 0 -83 -27t-31 -89v-235h-296v724h296v-253h6q41 40 99.5 62.5t144.5 22.5q118 0 185 -53zM510 772h-273l-56 71h-6l-56 -71h-273l140 147h384z" />
    <glyph glyph-name="Hbar" unicode="&#x126;" horiz-adv-x="1058" 
d="M994 648h70v-116h-70v-532h-300v257h-330v-257h-300v532h-70v116h70v66h300v-66h330v66h300v-66zM364 465h330v67h-330v-67z" />
    <glyph glyph-name="hbar" unicode="&#x127;" horiz-adv-x="890" 
d="M793 503q67 -53 67 -166v-337h-296v255q0 96 -92 96q-52 0 -83 -27t-31 -89v-235h-296v569h-70v110h70v45h296v-45h135v-110h-135v-98h6q41 40 99.5 62.5t144.5 22.5q118 0 185 -53z" />
    <glyph glyph-name="Itilde" unicode="&#x128;" horiz-adv-x="370" 
d="M335 714v-714h-300v714h300zM261 767.5q-30 6.5 -73 18.5q-25 7 -49.5 12.5t-41.5 5.5q-18 0 -24.5 -8t-5.5 -24h-177q0 56 22 96t57.5 60.5t76.5 20.5q31 0 62 -6.5t73 -18.5q6 -2 37.5 -10t53.5 -8q18 0 24.5 8t5.5 24h177q0 -56 -22.5 -96t-58.5 -60.5t-76 -20.5
q-31 0 -61 6.5z" />
    <glyph glyph-name="itilde" unicode="&#x129;" horiz-adv-x="356" 
d="M326 0h-296v542h296v-542zM261 593.5q-30 6.5 -73 18.5q-25 7 -49.5 12.5t-41.5 5.5q-18 0 -24.5 -8t-5.5 -24h-177q0 56 22 96t57.5 60.5t76.5 20.5q31 0 62 -6.5t73 -18.5q6 -2 37.5 -10t53.5 -8q18 0 24.5 8t5.5 24h177q0 -56 -22.5 -96t-58.5 -60.5t-76 -20.5
q-31 0 -61 6.5z" />
    <glyph glyph-name="Imacron" unicode="&#x12a;" horiz-adv-x="370" 
d="M335 714v-714h-300v714h300zM435 918v-124h-500v124h500z" />
    <glyph glyph-name="imacron" unicode="&#x12b;" horiz-adv-x="356" 
d="M326 0h-296v542h296v-542zM428 740v-124h-500v124h500z" />
    <glyph glyph-name="Ibreve" unicode="&#x12c;" horiz-adv-x="370" 
d="M335 714v-714h-300v714h300zM477 938q-9 -87 -88.5 -128t-203.5 -41t-203.5 41t-88.5 128h221q7 -37 71 -37t71 37h221z" />
    <glyph glyph-name="ibreve" unicode="&#x12d;" horiz-adv-x="356" 
d="M326 0h-296v542h296v-542zM470 761q-9 -87 -88.5 -128t-203.5 -41t-203.5 41t-88.5 128h221q7 -37 71 -37t71 37h221z" />
    <glyph glyph-name="Iogonek" unicode="&#x12e;" horiz-adv-x="370" 
d="M335 0q-56 -19 -81 -44t-25 -51q0 -18 12.5 -26t29.5 -8q25 0 37 2t27 7v-124q-47 -11 -116 -11q-106 0 -164.5 28.5t-58.5 94.5q0 44 39.5 77.5t111.5 54.5h-112v714h300v-714z" />
    <glyph glyph-name="iogonek" unicode="&#x12f;" horiz-adv-x="356" 
d="M28 604v124h300v-124h-300zM30 0v542h296v-542q-56 -19 -81 -44t-25 -51q0 -34 47 -34q22 0 32.5 2t26.5 7v-124q-47 -11 -116 -11q-105 0 -159 28t-54 95q0 44 37 77.5t105 54.5h-109z" />
    <glyph glyph-name="Idotaccent" unicode="&#x130;" horiz-adv-x="370" 
d="M335 714v-714h-300v714h300zM335 782h-300v124h300v-124z" />
    <glyph glyph-name="dotlessi" unicode="&#x131;" horiz-adv-x="356" 
d="M326 0h-296v542h296v-542z" />
    <glyph glyph-name="IJ" unicode="&#x132;" horiz-adv-x="1326" 
d="M335 714v-714h-300v714h300zM1291 342q0 -146 -54 -226.5t-153 -111t-250 -30.5t-247.5 30.5t-148.5 111t-52 226.5v18h300v-18q0 -80 36 -114t112 -34q77 0 117 34.5t40 113.5v372h300v-372z" />
    <glyph glyph-name="ij" unicode="&#x133;" horiz-adv-x="712" 
d="M28 728h300v-124h-300v124zM384 604v124h300v-124h-300zM386 542h296v-541q0 -86 -25.5 -127.5t-85 -55.5t-179.5 -14q-56 0 -86 2v194h-276v542h296v-528h14q27 0 36.5 7.5t9.5 31.5v489z" />
    <glyph glyph-name="Jcircumflex" unicode="&#x134;" horiz-adv-x="956" 
d="M921 342q0 -146 -54 -226.5t-153 -111t-250 -30.5t-247.5 30.5t-148.5 111t-52 226.5v18h300v-18q0 -80 36 -114t112 -34q77 0 117 34.5t40 113.5v372h300v-372zM1103 772h-273l-56 71h-6l-56 -71h-273l140 147h384z" />
    <glyph glyph-name="jcircumflex" unicode="&#x135;" horiz-adv-x="356" 
d="M20.5 21.5q9.5 7.5 9.5 31.5v489h296v-541q0 -86 -25.5 -127.5t-85 -55.5t-179.5 -14q-56 0 -86 2v210q14 -2 34 -2q27 0 36.5 7.5zM510 604h-273l-56 71h-6l-56 -71h-273l140 147h384z" />
    <glyph glyph-name="uni0136" unicode="&#x136;" horiz-adv-x="994" 
d="M959 714l-296 -255l345 -459h-360l-196 276l-117 -100v-176h-300v714h300v-253l283 253h341zM642 -168q0 -45 -17.5 -73t-82.5 -45.5t-200 -17.5v62q62 0 90 6.5t35 17.5t7 31h-132v124h300v-105z" />
    <glyph glyph-name="uni0137" unicode="&#x137;" horiz-adv-x="863" 
d="M841 542l-246 -204l278 -338h-348l-127 174l-72 -60v-114h-296v724h296v-353l190 171h325zM576 -168q0 -45 -17.5 -73t-82.5 -45.5t-200 -17.5v62q62 0 90 6.5t35 17.5t7 31h-132v124h300v-105z" />
    <glyph glyph-name="kgreenlandic" unicode="&#x138;" horiz-adv-x="863" 
d="M841 542l-246 -204l278 -338h-348l-127 174l-72 -60v-114h-296v542h296v-171l190 171h325z" />
    <glyph glyph-name="Lacute" unicode="&#x139;" horiz-adv-x="851" 
d="M832 210v-210h-797v714h300v-504h497zM173 929h358l-212 -157h-242z" />
    <glyph glyph-name="lacute" unicode="&#x13a;" horiz-adv-x="356" 
d="M326 0h-296v724h296v-724zM166 929h358l-212 -157h-242z" />
    <glyph glyph-name="uni013B" unicode="&#x13b;" horiz-adv-x="851" 
d="M832 210v-210h-797v714h300v-504h497zM584 -168q0 -45 -17.5 -73t-82.5 -45.5t-200 -17.5v62q62 0 90 6.5t35 17.5t7 31h-132v124h300v-105z" />
    <glyph glyph-name="uni013C" unicode="&#x13c;" horiz-adv-x="356" 
d="M326 0h-296v724h296v-724zM328 -168q0 -45 -17.5 -73t-82.5 -45.5t-200 -17.5v62q62 0 90 6.5t35 17.5t7 31h-132v124h300v-105z" />
    <glyph glyph-name="Lcaron" unicode="&#x13d;" horiz-adv-x="851" 
d="M754 599q0 -90 -26 -143t-85 -77.5t-161 -24.5v80q67 0 93.5 27t26.5 81h-120v182h272v-125zM832 210v-210h-797v714h300v-504h497z" />
    <glyph glyph-name="lcaron" unicode="&#x13e;" horiz-adv-x="619" 
d="M326 0h-296v724h296v-724zM599 639q0 -109 -55.5 -156t-176.5 -47v80q59 0 83.5 15t24.5 51h-108v142h232v-85z" />
    <glyph glyph-name="Ldot" unicode="&#x13f;" horiz-adv-x="851" 
d="M832 210v-210h-797v714h300v-504h497zM514.5 270.5q-33.5 19.5 -53 53t-19.5 73.5t19.5 73.5t53 53t73.5 19.5t73.5 -19.5t53 -53t19.5 -73.5t-19.5 -73.5t-53 -53t-73.5 -19.5t-73.5 19.5z" />
    <glyph glyph-name="ldot" unicode="&#x140;" horiz-adv-x="677" 
d="M326 0h-296v724h296v-724zM438.5 236.5q-33.5 19.5 -53 53t-19.5 73.5t19.5 73.5t53 53t73.5 19.5t73.5 -19.5t53 -53t19.5 -73.5t-19.5 -73.5t-53 -53t-73.5 -19.5t-73.5 19.5z" />
    <glyph glyph-name="Lslash" unicode="&#x141;" horiz-adv-x="861" 
d="M345 297v-87h497v-210h-797v191l-35 -12v196l35 12v327h300v-221l299 105v-196z" />
    <glyph glyph-name="lslash" unicode="&#x142;" horiz-adv-x="476" 
d="M386 521l70 25v-156l-70 -25v-365h-296v261l-70 -25v156l70 25v307h296v-203z" />
    <glyph glyph-name="Nacute" unicode="&#x143;" horiz-adv-x="1000" 
d="M683 340v374h282v-714h-341l-301 378h-6v-378h-282v714h345l297 -374h6zM488 929h358l-212 -157h-242z" />
    <glyph glyph-name="nacute" unicode="&#x144;" horiz-adv-x="858" 
d="M321 542v-71h6q45 40 104 62.5t145 22.5q118 0 185 -53t67 -166v-337h-296v255q0 96 -92 96q-52 0 -83 -27t-31 -89v-235h-296v542h291zM407 761h358l-212 -157h-242z" />
    <glyph glyph-name="uni0145" unicode="&#x145;" horiz-adv-x="1000" 
d="M683 340v374h282v-714h-341l-301 378h-6v-378h-282v714h345l297 -374h6zM650 -168q0 -45 -17.5 -73t-82.5 -45.5t-200 -17.5v62q62 0 90 6.5t35 17.5t7 31h-132v124h300v-105z" />
    <glyph glyph-name="uni0146" unicode="&#x146;" horiz-adv-x="858" 
d="M321 542v-71h6q45 40 104 62.5t145 22.5q118 0 185 -53t67 -166v-337h-296v255q0 96 -92 96q-52 0 -83 -27t-31 -89v-235h-296v542h291zM579 -168q0 -45 -17.5 -73t-82.5 -45.5t-200 -17.5v62q62 0 90 6.5t35 17.5t7 31h-132v124h300v-105z" />
    <glyph glyph-name="Ncaron" unicode="&#x147;" horiz-adv-x="1000" 
d="M683 340v374h282v-714h-341l-301 378h-6v-378h-282v714h345l297 -374h6zM503 858l56 71h273l-140 -147h-384l-140 147h273l56 -71h6z" />
    <glyph glyph-name="ncaron" unicode="&#x148;" horiz-adv-x="858" 
d="M321 542v-71h6q45 40 104 62.5t145 22.5q118 0 185 -53t67 -166v-337h-296v255q0 96 -92 96q-52 0 -83 -27t-31 -89v-235h-296v542h291zM432 680l56 71h273l-140 -147h-384l-140 147h273l56 -71h6z" />
    <glyph glyph-name="napostrophe" unicode="&#x149;" horiz-adv-x="1119" 
d="M253 639q0 -109 -55.5 -156t-176.5 -47v80q59 0 83.5 15t24.5 51h-108v142h232v-85zM582 542v-71h6q45 40 104 62.5t145 22.5q118 0 185 -53t67 -166v-337h-296v255q0 96 -92 96q-52 0 -83 -27t-31 -89v-235h-296v542h291z" />
    <glyph glyph-name="Eng" unicode="&#x14a;" horiz-adv-x="1000" 
d="M683 714h282v-714q0 -74 -32 -117t-101 -62t-186 -19q-113 0 -183 19t-103.5 61.5t-33.5 114.5q0 5 1 15h272v-12q0 -17 10.5 -26.5t31.5 -9.5q20 0 31 9t11 25l-360 386h-6v-384h-282v714h345l297 -324h6v324z" />
    <glyph glyph-name="eng" unicode="&#x14b;" horiz-adv-x="858" 
d="M761 503q67 -53 67 -166v-337q0 -86 -25.5 -127t-85 -55t-179.5 -14q-56 0 -86 2v210q14 -2 34 -2q27 0 36.5 7.5t9.5 31.5v202q0 96 -92 96q-52 0 -83 -27t-31 -89v-235h-296v542h291v-71h6q45 40 104 62.5t145 22.5q118 0 185 -53z" />
    <glyph glyph-name="Omacron" unicode="&#x14c;" horiz-adv-x="1092" 
d="M941 647q129 -94 129 -290t-129 -290t-395 -94t-395 94t-129 290t129 290t395 94t395 -94zM742 357q0 164 -196 164t-196 -164t196 -164t196 164zM796 918v-124h-500v124h500z" />
    <glyph glyph-name="omacron" unicode="&#x14d;" 
d="M779.5 491.5q103.5 -75.5 103.5 -219.5q0 -146 -103 -221t-329 -75t-329 75t-103 221q0 144 103.5 219.5t328.5 75.5t328.5 -75.5zM547.5 191q30.5 30 30.5 81t-30.5 80.5t-96.5 29.5t-96.5 -29.5t-30.5 -80.5t30.5 -81t96.5 -30t96.5 30zM701 740v-124h-500v124h500z
" />
    <glyph glyph-name="Obreve" unicode="&#x14e;" horiz-adv-x="1092" 
d="M941 647q129 -94 129 -290t-129 -290t-395 -94t-395 94t-129 290t129 290t395 94t395 -94zM742 357q0 164 -196 164t-196 -164t196 -164t196 164zM838 938q-9 -87 -88.5 -128t-203.5 -41t-203.5 41t-88.5 128h221q7 -37 71 -37t71 37h221z" />
    <glyph glyph-name="obreve" unicode="&#x14f;" 
d="M779.5 491.5q103.5 -75.5 103.5 -219.5q0 -146 -103 -221t-329 -75t-329 75t-103 221q0 144 103.5 219.5t328.5 75.5t328.5 -75.5zM547.5 191q30.5 30 30.5 81t-30.5 80.5t-96.5 29.5t-96.5 -29.5t-30.5 -80.5t30.5 -81t96.5 -30t96.5 30zM743 761q-9 -87 -88.5 -128
t-203.5 -41t-203.5 41t-88.5 128h221q7 -37 71 -37t71 37h221z" />
    <glyph glyph-name="Ohungarumlaut" unicode="&#x150;" horiz-adv-x="1092" 
d="M941 647q129 -94 129 -290t-129 -290t-395 -94t-395 94t-129 290t129 290t395 94t395 -94zM742 357q0 164 -196 164t-196 -164t196 -164t196 164zM351 928h288l-154 -157h-215zM687 928h288l-154 -157h-215z" />
    <glyph glyph-name="ohungarumlaut" unicode="&#x151;" 
d="M779.5 491.5q103.5 -75.5 103.5 -219.5q0 -146 -103 -221t-329 -75t-329 75t-103 221q0 144 103.5 219.5t328.5 75.5t328.5 -75.5zM547.5 191q30.5 30 30.5 81t-30.5 80.5t-96.5 29.5t-96.5 -29.5t-30.5 -80.5t30.5 -81t96.5 -30t96.5 30zM256 761h288l-154 -157h-215z
M592 761h288l-154 -157h-215z" />
    <glyph glyph-name="OE" unicode="&#x152;" horiz-adv-x="1502" 
d="M1032 179h445v-179h-735v60h-6q-40 -42 -107.5 -64.5t-153.5 -22.5q-218 0 -335.5 96t-117.5 288t117.5 288t335.5 96q86 0 153.5 -22t107.5 -64h6v59h729v-182h-439v-90h413v-165h-413v-98zM694 235.5q48 42.5 48 121.5q0 164 -196 164t-196 -164q0 -79 48 -121.5
t148 -42.5t148 42.5z" />
    <glyph glyph-name="oe" unicode="&#x153;" horiz-adv-x="1392" 
d="M1370 217h-539q3 -49 31 -72.5t89 -23.5q58 0 82.5 16.5t33.5 33.5h299q-5 -87 -95.5 -141t-319.5 -54q-161 0 -253 57q-94 -57 -257 -57q-222 0 -322 75t-100 221q0 144 100.5 219.5t321.5 75.5q164 0 257 -58q92 58 253 58q221 0 321.5 -75.5t100.5 -220.5
q0 -27 -3 -54zM869.5 404q-27.5 -18 -35.5 -55h234q-8 37 -35.5 55t-81.5 18t-81.5 -18zM558 272q0 110 -117 110t-117 -110q0 -111 117 -111t117 111z" />
    <glyph glyph-name="Racute" unicode="&#x154;" horiz-adv-x="985" 
d="M823 262l162 -262h-331l-116 202h-203v-202h-300v714h616q174 0 246 -61.5t72 -184.5q0 -85 -37 -131t-109 -65v-10zM559 377q41 0 58.5 14.5t17.5 45.5q0 32 -17 47t-59 15h-224v-122h224zM473 928h358l-212 -157h-242z" />
    <glyph glyph-name="racute" unicode="&#x155;" horiz-adv-x="647" 
d="M30 542h291v-82h6q40 50 103 73t153 23q16 0 48 -4v-263q-66 11 -122 11q-85 0 -134 -31t-49 -114v-155h-296v542zM309 761h358l-212 -157h-242z" />
    <glyph glyph-name="uni0156" unicode="&#x156;" horiz-adv-x="985" 
d="M823 262l162 -262h-331l-116 202h-203v-202h-300v714h616q174 0 246 -61.5t72 -184.5q0 -85 -37 -131t-109 -65v-10zM559 377q41 0 58.5 14.5t17.5 45.5q0 32 -17 47t-59 15h-224v-122h224zM645 -168q0 -45 -17.5 -73t-82.5 -45.5t-200 -17.5v62q62 0 90 6.5t35 17.5
t7 31h-132v124h300v-105z" />
    <glyph glyph-name="uni0157" unicode="&#x157;" horiz-adv-x="647" 
d="M30 542h291v-82h6q40 50 103 73t153 23q16 0 48 -4v-263q-66 11 -122 11q-85 0 -134 -31t-49 -114v-155h-296v542zM328 -168q0 -45 -17.5 -73t-82.5 -45.5t-200 -17.5v62q62 0 90 6.5t35 17.5t7 31h-132v124h300v-105z" />
    <glyph glyph-name="Rcaron" unicode="&#x158;" horiz-adv-x="985" 
d="M823 262l162 -262h-331l-116 202h-203v-202h-300v714h616q174 0 246 -61.5t72 -184.5q0 -85 -37 -131t-109 -65v-10zM559 377q41 0 58.5 14.5t17.5 45.5q0 32 -17 47t-59 15h-224v-122h224zM488 857l56 71h273l-140 -147h-384l-140 147h273l56 -71h6z" />
    <glyph glyph-name="rcaron" unicode="&#x159;" horiz-adv-x="647" 
d="M30 542h291v-82h6q40 50 103 73t153 23q16 0 48 -4v-263q-66 11 -122 11q-85 0 -134 -31t-49 -114v-155h-296v542zM334 680l56 71h273l-140 -147h-384l-140 147h273l56 -71h6z" />
    <glyph glyph-name="Sacute" unicode="&#x15a;" horiz-adv-x="1002" 
d="M617 500q-3 29 -35.5 45t-95.5 16q-68 0 -93.5 -10.5t-25.5 -30.5t18 -29.5t69 -13.5l248 -23q135 -13 208 -67.5t73 -162.5q0 -103 -54 -157.5t-157.5 -74t-274.5 -19.5q-166 0 -269 22t-158.5 79t-59.5 161h340q4 -45 39.5 -60.5t111.5 -15.5q75 0 103 10t28 31
q0 22 -19 33.5t-72 17.5l-232 26q-134 15 -207.5 63.5t-73.5 159.5q0 135 119.5 188t342.5 53q220 0 337.5 -52.5t123.5 -188.5h-334zM478 929h358l-212 -157h-242z" />
    <glyph glyph-name="sacute" unicode="&#x15b;" horiz-adv-x="907" 
d="M547 384q-3 26 -32 37.5t-85 11.5q-97 0 -97 -34q0 -15 13 -22t47 -10l276 -26q105 -10 162 -48.5t57 -123.5q0 -78 -49 -120t-142 -57.5t-244 -15.5q-144 0 -238 15t-148 57.5t-57 122.5h330q3 -35 28.5 -47.5t87.5 -12.5q63 0 88.5 9.5t25.5 26.5q0 16 -13 24t-47 12
l-242 25q-114 11 -178 51.5t-64 121.5q0 75 49 116t135.5 55.5t218.5 14.5q138 0 231 -14.5t148 -54.5t58 -114h-319zM407 761h358l-212 -157h-242z" />
    <glyph glyph-name="Scircumflex" unicode="&#x15c;" horiz-adv-x="1002" 
d="M617 500q-3 29 -35.5 45t-95.5 16q-68 0 -93.5 -10.5t-25.5 -30.5t18 -29.5t69 -13.5l248 -23q135 -13 208 -67.5t73 -162.5q0 -103 -54 -157.5t-157.5 -74t-274.5 -19.5q-166 0 -269 22t-158.5 79t-59.5 161h340q4 -45 39.5 -60.5t111.5 -15.5q75 0 103 10t28 31
q0 22 -19 33.5t-72 17.5l-232 26q-134 15 -207.5 63.5t-73.5 159.5q0 135 119.5 188t342.5 53q220 0 337.5 -52.5t123.5 -188.5h-334zM822 772h-273l-56 71h-6l-56 -71h-273l140 147h384z" />
    <glyph glyph-name="scircumflex" unicode="&#x15d;" horiz-adv-x="907" 
d="M547 384q-3 26 -32 37.5t-85 11.5q-97 0 -97 -34q0 -15 13 -22t47 -10l276 -26q105 -10 162 -48.5t57 -123.5q0 -78 -49 -120t-142 -57.5t-244 -15.5q-144 0 -238 15t-148 57.5t-57 122.5h330q3 -35 28.5 -47.5t87.5 -12.5q63 0 88.5 9.5t25.5 26.5q0 16 -13 24t-47 12
l-242 25q-114 11 -178 51.5t-64 121.5q0 75 49 116t135.5 55.5t218.5 14.5q138 0 231 -14.5t148 -54.5t58 -114h-319zM761 604h-273l-56 71h-6l-56 -71h-273l140 147h384z" />
    <glyph glyph-name="Scedilla" unicode="&#x15e;" horiz-adv-x="1002" 
d="M935.5 73.5q-47.5 -53.5 -139.5 -75.5t-242 -25l-18 -21q8 2 24 2q87 0 127 -23.5t40 -76.5q0 -59 -51.5 -83.5t-172.5 -24.5q-95 0 -159 18v82h6q58 -18 145 -18q26 0 42.5 6t16.5 19t-16.5 19t-42.5 6q-20 0 -48 -2.5t-43 -5.5h-6v49l49 54q-147 3 -240 27t-143 80
t-54 155h340q4 -45 39.5 -60.5t111.5 -15.5q75 0 103 10t28 31q0 22 -19 33.5t-72 17.5l-232 26q-134 15 -207.5 63.5t-73.5 159.5q0 135 119.5 188t342.5 53q220 0 337.5 -52.5t123.5 -188.5h-334q-3 29 -35.5 45t-95.5 16q-68 0 -93.5 -10.5t-25.5 -30.5t18 -29.5
t69 -13.5l248 -23q135 -13 208 -67.5t73 -162.5q0 -97 -47.5 -150.5z" />
    <glyph glyph-name="scedilla" unicode="&#x15f;" horiz-adv-x="907" 
d="M845 54.5q-43 -41.5 -124.5 -58.5t-211.5 -20l-22 -24q8 2 24 2q87 0 127 -23.5t40 -76.5q0 -59 -51.5 -83.5t-172.5 -24.5q-95 0 -159 18v82h6q58 -18 145 -18q26 0 42.5 6t16.5 19t-16.5 19t-42.5 6q-20 0 -48 -2.5t-43 -5.5h-6v49l52 57q-126 3 -209.5 20t-131 58.5
t-50.5 116.5h330q3 -35 28.5 -47.5t87.5 -12.5q63 0 88.5 9.5t25.5 26.5q0 16 -13 24t-47 12l-242 25q-114 11 -178 51.5t-64 121.5q0 75 49 116t135.5 55.5t218.5 14.5q138 0 231 -14.5t148 -54.5t58 -114h-319q-3 26 -32 37.5t-85 11.5q-97 0 -97 -34q0 -15 13 -22t47 -10
l276 -26q105 -10 162 -48.5t57 -123.5q0 -73 -43 -114.5z" />
    <glyph glyph-name="Scaron" unicode="&#x160;" horiz-adv-x="1002" 
d="M617 500q-3 29 -35.5 45t-95.5 16q-68 0 -93.5 -10.5t-25.5 -30.5t18 -29.5t69 -13.5l248 -23q135 -13 208 -67.5t73 -162.5q0 -103 -54 -157.5t-157.5 -74t-274.5 -19.5q-166 0 -269 22t-158.5 79t-59.5 161h340q4 -45 39.5 -60.5t111.5 -15.5q75 0 103 10t28 31
q0 22 -19 33.5t-72 17.5l-232 26q-134 15 -207.5 63.5t-73.5 159.5q0 135 119.5 188t342.5 53q220 0 337.5 -52.5t123.5 -188.5h-334zM493 858l56 71h273l-140 -147h-384l-140 147h273l56 -71h6z" />
    <glyph glyph-name="scaron" unicode="&#x161;" horiz-adv-x="907" 
d="M547 384q-3 26 -32 37.5t-85 11.5q-97 0 -97 -34q0 -15 13 -22t47 -10l276 -26q105 -10 162 -48.5t57 -123.5q0 -78 -49 -120t-142 -57.5t-244 -15.5q-144 0 -238 15t-148 57.5t-57 122.5h330q3 -35 28.5 -47.5t87.5 -12.5q63 0 88.5 9.5t25.5 26.5q0 16 -13 24t-47 12
l-242 25q-114 11 -178 51.5t-64 121.5q0 75 49 116t135.5 55.5t218.5 14.5q138 0 231 -14.5t148 -54.5t58 -114h-319zM432 680l56 71h273l-140 -147h-384l-140 147h273l56 -71h6z" />
    <glyph glyph-name="uni0162" unicode="&#x162;" horiz-adv-x="890" 
d="M595 0h-88l-43 -48q8 2 24 2q87 0 127 -23.5t40 -76.5q0 -59 -51.5 -83.5t-172.5 -24.5q-95 0 -159 18v82h6q58 -18 145 -18q26 0 42.5 6t16.5 19t-16.5 19t-42.5 6q-20 0 -48 -2.5t-43 -5.5h-6v49l73 81h-104v500h-279v214h858v-214h-279v-500z" />
    <glyph glyph-name="uni0163" unicode="&#x163;" horiz-adv-x="550" 
d="M484 -69.5q40 -23.5 40 -76.5q0 -59 -51.5 -83.5t-172.5 -24.5q-95 0 -159 18v82h6q58 -18 145 -18q26 0 42.5 6t16.5 19t-16.5 19t-42.5 6q-20 0 -48 -2.5t-43 -5.5h-6v49l68 76q-69 7 -108.5 28.5t-56.5 61.5t-17 104v217h-81v136h81v144h296v-144h133v-136h-133v-171
q0 -20 14.5 -27t52.5 -7q36 0 66 1v-202q-84 -7 -142 -9l-35 -39q8 2 24 2q87 0 127 -23.5z" />
    <glyph glyph-name="Tcaron" unicode="&#x164;" horiz-adv-x="890" 
d="M16 714h858v-214h-279v-500h-300v500h-279v214zM448 858l56 71h273l-140 -147h-384l-140 147h273l56 -71h6z" />
    <glyph glyph-name="tcaron" unicode="&#x165;" horiz-adv-x="648" 
d="M652 789q0 -109 -55.5 -156t-176.5 -47v80q59 0 83.5 15t24.5 51h-108v142h232v-85zM510 202v-202q-8 -1 -59.5 -5t-104.5 -4q-103 0 -160 19t-81 61.5t-24 117.5v217h-81v136h81v144h296v-144h133v-136h-133v-171q0 -20 14.5 -27t52.5 -7q36 0 66 1z" />
    <glyph glyph-name="Tbar" unicode="&#x166;" horiz-adv-x="890" 
d="M874 714v-214h-279v-129h135v-179h-135v-192h-300v192h-135v179h135v129h-279v214h858z" />
    <glyph glyph-name="tbar" unicode="&#x167;" horiz-adv-x="536" 
d="M510 406h-133v-50h133v-90h-133v-31q0 -20 14.5 -27t52.5 -7q36 0 66 1v-202q-8 -1 -59.5 -5t-104.5 -4q-103 0 -160 19t-81 61.5t-24 117.5v77h-81v90h81v50h-81v136h81v144h296v-144h133v-136z" />
    <glyph glyph-name="Utilde" unicode="&#x168;" horiz-adv-x="994" 
d="M659 714h300v-402q0 -127 -54.5 -201.5t-155.5 -105.5t-252 -31t-252 31t-155.5 105.5t-54.5 201.5v402h300v-401q0 -66 40.5 -92.5t121.5 -26.5t121.5 26.5t40.5 92.5v401zM573 767.5q-30 6.5 -73 18.5q-25 7 -49.5 12.5t-41.5 5.5q-18 0 -24.5 -8t-5.5 -24h-177
q0 56 22 96t57.5 60.5t76.5 20.5q31 0 62 -6.5t73 -18.5q6 -2 37.5 -10t53.5 -8q18 0 24.5 8t5.5 24h177q0 -56 -22.5 -96t-58.5 -60.5t-76 -20.5q-31 0 -61 6.5z" />
    <glyph glyph-name="utilde" unicode="&#x169;" horiz-adv-x="858" 
d="M537 0v71h-6q-45 -40 -104 -62.5t-145 -22.5q-118 0 -185 53t-67 166v337h296v-255q0 -96 92 -96q52 0 83 27t31 89v235h296v-542h-291zM512 593.5q-30 6.5 -73 18.5q-25 7 -49.5 12.5t-41.5 5.5q-18 0 -24.5 -8t-5.5 -24h-177q0 56 22 96t57.5 60.5t76.5 20.5
q31 0 62 -6.5t73 -18.5q6 -2 37.5 -10t53.5 -8q18 0 24.5 8t5.5 24h177q0 -56 -22.5 -96t-58.5 -60.5t-76 -20.5q-31 0 -61 6.5z" />
    <glyph glyph-name="Umacron" unicode="&#x16a;" horiz-adv-x="994" 
d="M659 714h300v-402q0 -127 -54.5 -201.5t-155.5 -105.5t-252 -31t-252 31t-155.5 105.5t-54.5 201.5v402h300v-401q0 -66 40.5 -92.5t121.5 -26.5t121.5 26.5t40.5 92.5v401zM747 918v-124h-500v124h500z" />
    <glyph glyph-name="umacron" unicode="&#x16b;" horiz-adv-x="858" 
d="M537 0v71h-6q-45 -40 -104 -62.5t-145 -22.5q-118 0 -185 53t-67 166v337h296v-255q0 -96 92 -96q52 0 83 27t31 89v235h296v-542h-291zM679 740v-124h-500v124h500z" />
    <glyph glyph-name="Ubreve" unicode="&#x16c;" horiz-adv-x="994" 
d="M659 714h300v-402q0 -127 -54.5 -201.5t-155.5 -105.5t-252 -31t-252 31t-155.5 105.5t-54.5 201.5v402h300v-401q0 -66 40.5 -92.5t121.5 -26.5t121.5 26.5t40.5 92.5v401zM789 938q-9 -87 -88.5 -128t-203.5 -41t-203.5 41t-88.5 128h221q7 -37 71 -37t71 37h221z" />
    <glyph glyph-name="ubreve" unicode="&#x16d;" horiz-adv-x="858" 
d="M537 0v71h-6q-45 -40 -104 -62.5t-145 -22.5q-118 0 -185 53t-67 166v337h296v-255q0 -96 92 -96q52 0 83 27t31 89v235h296v-542h-291zM721 761q-9 -87 -88.5 -128t-203.5 -41t-203.5 41t-88.5 128h221q7 -37 71 -37t71 37h221z" />
    <glyph glyph-name="Uring" unicode="&#x16e;" horiz-adv-x="994" 
d="M659 714h300v-402q0 -127 -54.5 -201.5t-155.5 -105.5t-252 -31t-252 31t-155.5 105.5t-54.5 201.5v402h300v-401q0 -66 40.5 -92.5t121.5 -26.5t121.5 26.5t40.5 92.5v401zM364 778.5q-53 37.5 -53 101.5t53 101.5t133 37.5t133 -37.5t53 -101.5t-53 -101.5t-133 -37.5
t-133 37.5zM534 849q15 12 15 31t-15 31t-37 12t-37 -12t-15 -31t15 -31t37 -12t37 12z" />
    <glyph glyph-name="uring" unicode="&#x16f;" horiz-adv-x="858" 
d="M537 0v71h-6q-45 -40 -104 -62.5t-145 -22.5q-118 0 -185 53t-67 166v337h296v-255q0 -96 92 -96q52 0 83 27t31 89v235h296v-542h-291zM296 629.5q-53 37.5 -53 101.5t53 101.5t133 37.5t133 -37.5t53 -101.5t-53 -101.5t-133 -37.5t-133 37.5zM466 700q15 12 15 31
t-15 31t-37 12t-37 -12t-15 -31t15 -31t37 -12t37 12z" />
    <glyph glyph-name="Uhungarumlaut" unicode="&#x170;" horiz-adv-x="994" 
d="M659 714h300v-402q0 -127 -54.5 -201.5t-155.5 -105.5t-252 -31t-252 31t-155.5 105.5t-54.5 201.5v402h300v-401q0 -66 40.5 -92.5t121.5 -26.5t121.5 26.5t40.5 92.5v401zM302 928h288l-154 -157h-215zM638 928h288l-154 -157h-215z" />
    <glyph glyph-name="uhungarumlaut" unicode="&#x171;" horiz-adv-x="858" 
d="M537 0v71h-6q-45 -40 -104 -62.5t-145 -22.5q-118 0 -185 53t-67 166v337h296v-255q0 -96 92 -96q52 0 83 27t31 89v235h296v-542h-291zM234 761h288l-154 -157h-215zM570 761h288l-154 -157h-215z" />
    <glyph glyph-name="Uogonek" unicode="&#x172;" horiz-adv-x="994" 
d="M659 714h300v-402q0 -132 -58 -207t-172 -106q-55 -19 -79 -43.5t-24 -50.5q0 -18 12.5 -26t29.5 -8q25 0 37 2t27 7v-124q-47 -11 -116 -11q-106 0 -164.5 28.5t-58.5 94.5q0 65 84 106q-145 2 -241.5 34t-148.5 105.5t-52 198.5v402h300v-401q0 -66 40.5 -92.5
t121.5 -26.5t121.5 26.5t40.5 92.5v401z" />
    <glyph glyph-name="uogonek" unicode="&#x173;" horiz-adv-x="858" 
d="M828 0q-56 -19 -81 -44t-25 -51q0 -34 47 -34q22 0 32.5 2t26.5 7v-124q-47 -11 -116 -11q-105 0 -159 28t-54 95q0 44 37 77.5t105 54.5h-104v71h-6q-45 -40 -104 -62.5t-145 -22.5q-118 0 -185 53t-67 166v337h296v-255q0 -96 92 -96q52 0 83 27t31 89v235h296v-542z
" />
    <glyph glyph-name="Wcircumflex" unicode="&#x174;" horiz-adv-x="1280" 
d="M1297 714l-198 -714h-357l-99 428h-6l-99 -428h-363l-192 714h303l91 -433h6l100 433h314l101 -433h6l92 433h301zM972 772h-273l-56 71h-6l-56 -71h-273l140 147h384z" />
    <glyph glyph-name="wcircumflex" unicode="&#x175;" horiz-adv-x="1267" 
d="M963 542h310l-233 -542h-304l-93 289h-6l-93 -289h-318l-232 542h313l97 -282h6l91 282h271l90 -281h6zM969 604h-273l-56 71h-6l-56 -71h-273l140 147h384z" />
    <glyph glyph-name="Ycircumflex" unicode="&#x176;" horiz-adv-x="968" 
d="M644 714h344l-354 -488v-226h-300v226l-354 488h345l159 -251zM817 772h-273l-56 71h-6l-56 -71h-273l140 147h384z" />
    <glyph glyph-name="ycircumflex" unicode="&#x177;" horiz-adv-x="878" 
d="M623 23q-50 -98 -84.5 -140.5t-92.5 -60.5t-172 -18h-187v211h109q39 0 49 2t12 8l1 3l-268 514h332l114 -286h6l114 286h332zM771 604h-273l-56 71h-6l-56 -71h-273l140 147h384z" />
    <glyph glyph-name="Ydieresis" unicode="&#x178;" horiz-adv-x="968" 
d="M644 714h344l-354 -488v-226h-300v226l-354 488h345l159 -251zM447 782h-260v124h260v-124zM783 782h-260v124h260v-124z" />
    <glyph glyph-name="Zacute" unicode="&#x179;" horiz-adv-x="927" 
d="M901 714v-212l-398 -282h399v-220h-883v212l398 282h-380v220h864zM457 929h358l-212 -157h-242z" />
    <glyph glyph-name="zacute" unicode="&#x17a;" horiz-adv-x="801" 
d="M772 178v-178h-753v179l313 187h-292v176h732v-175l-316 -189h316zM384 761h358l-212 -157h-242z" />
    <glyph glyph-name="Zdotaccent" unicode="&#x17b;" horiz-adv-x="927" 
d="M901 714v-212l-398 -282h399v-220h-883v212l398 282h-380v220h864zM619 782h-300v124h300v-124z" />
    <glyph glyph-name="zdotaccent" unicode="&#x17c;" horiz-adv-x="801" 
d="M772 178v-178h-753v179l313 187h-292v176h732v-175l-316 -189h316zM556 604h-300v124h300v-124z" />
    <glyph glyph-name="Zcaron" unicode="&#x17d;" horiz-adv-x="927" 
d="M901 714v-212l-398 -282h399v-220h-883v212l398 282h-380v220h864zM472 858l56 71h273l-140 -147h-384l-140 147h273l56 -71h6z" />
    <glyph glyph-name="zcaron" unicode="&#x17e;" horiz-adv-x="801" 
d="M772 178v-178h-753v179l313 187h-292v176h732v-175l-316 -189h316zM409 680l56 71h273l-140 -147h-384l-140 147h273l56 -71h6z" />
    <glyph glyph-name="florin" unicode="&#x192;" horiz-adv-x="692" 
d="M555.5 590q-19.5 -16 -26.5 -55l-16 -84h129v-155h-160l-27 -141q-15 -76 -57 -114.5t-108 -51t-174 -12.5q-57 0 -103 6v144q6 0 21 -1t34 -1q49 0 68 16t27 55l19 100h-98v155h129l24 125q15 76 57 114.5t108 51t174 12.5q57 0 103 -6v-144q-6 0 -21 1t-34 1
q-49 0 -68.5 -16z" />
    <glyph glyph-name="Oslashacute" unicode="&#x1fe;" horiz-adv-x="1092" 
d="M532 929h425l-252 -157h-287zM971 622q99 -93 99 -265q0 -196 -129 -290t-395 -94q-207 0 -332 57l-90 -70l-92 62l89 70q-99 93 -99 265q0 196 129 290t395 94q208 0 332 -57l90 70l92 -62zM364 281l286 224q-41 16 -104 16q-196 0 -196 -164q0 -45 14 -76zM742 357
q0 45 -14 76l-286 -224q41 -16 104 -16q196 0 196 164z" />
    <glyph glyph-name="oslashacute" unicode="&#x1ff;" 
d="M797 478q86 -72 86 -206q0 -146 -103 -221t-329 -75q-170 0 -272 44l-72 -54l-73 46l71 53q-86 72 -86 207q0 144 103.5 219.5t328.5 75.5q171 0 271 -44l73 54l73 -46zM330 231l188 140q-28 11 -67 11q-66 0 -96.5 -29.5t-30.5 -80.5q0 -21 6 -41zM547.5 191
q30.5 30 30.5 81q0 20 -5 40l-188 -140q27 -11 66 -11q66 0 96.5 30zM429 761h358l-212 -157h-242z" />
    <glyph glyph-name="uni0218" unicode="&#x218;" horiz-adv-x="1002" 
d="M617 500q-3 29 -35.5 45t-95.5 16q-68 0 -93.5 -10.5t-25.5 -30.5t18 -29.5t69 -13.5l248 -23q135 -13 208 -67.5t73 -162.5q0 -103 -54 -157.5t-157.5 -74t-274.5 -19.5q-166 0 -269 22t-158.5 79t-59.5 161h340q4 -45 39.5 -60.5t111.5 -15.5q75 0 103 10t28 31
q0 22 -19 33.5t-72 17.5l-232 26q-134 15 -207.5 63.5t-73.5 159.5q0 135 119.5 188t342.5 53q220 0 337.5 -52.5t123.5 -188.5h-334zM647 -168q0 -45 -17.5 -73t-82.5 -45.5t-200 -17.5v62q62 0 90 6.5t35 17.5t7 31h-132v124h300v-105z" />
    <glyph glyph-name="uni0219" unicode="&#x219;" horiz-adv-x="907" 
d="M547 384q-3 26 -32 37.5t-85 11.5q-97 0 -97 -34q0 -15 13 -22t47 -10l276 -26q105 -10 162 -48.5t57 -123.5q0 -78 -49 -120t-142 -57.5t-244 -15.5q-144 0 -238 15t-148 57.5t-57 122.5h330q3 -35 28.5 -47.5t87.5 -12.5q63 0 88.5 9.5t25.5 26.5q0 16 -13 24t-47 12
l-242 25q-114 11 -178 51.5t-64 121.5q0 75 49 116t135.5 55.5t218.5 14.5q138 0 231 -14.5t148 -54.5t58 -114h-319zM603 -168q0 -45 -17.5 -73t-82.5 -45.5t-200 -17.5v62q62 0 90 6.5t35 17.5t7 31h-132v124h300v-105z" />
    <glyph glyph-name="uni021A" unicode="&#x21a;" horiz-adv-x="890" 
d="M16 714h858v-214h-279v-500h-300v500h-279v214zM595 -168q0 -45 -17.5 -73t-82.5 -45.5t-200 -17.5v62q62 0 90 6.5t35 17.5t7 31h-132v124h300v-105z" />
    <glyph glyph-name="uni021B" unicode="&#x21b;" horiz-adv-x="536" 
d="M510 202v-202q-8 -1 -59.5 -5t-104.5 -4q-103 0 -160 19t-81 61.5t-24 117.5v217h-81v136h81v144h296v-144h133v-136h-133v-171q0 -20 14.5 -27t52.5 -7q36 0 66 1zM446 -168q0 -45 -17.5 -73t-82.5 -45.5t-200 -17.5v62q62 0 90 6.5t35 17.5t7 31h-132v124h300v-105z
" />
    <glyph glyph-name="uni0237" unicode="&#x237;" horiz-adv-x="356" 
d="M20.5 21.5q9.5 7.5 9.5 31.5v489h296v-541q0 -86 -25.5 -127.5t-85 -55.5t-179.5 -14q-56 0 -86 2v210q14 -2 34 -2q27 0 36.5 7.5z" />
    <glyph glyph-name="uni02BC" unicode="&#x2bc;" horiz-adv-x="342" 
d="M307 599q0 -90 -26 -143t-85 -77.5t-161 -24.5v80q67 0 93.5 27t26.5 81h-120v182h272v-125z" />
    <glyph glyph-name="circumflex" unicode="&#x2c6;" horiz-adv-x="734" 
d="M699 604h-273l-56 71h-6l-56 -71h-273l140 147h384z" />
    <glyph glyph-name="caron" unicode="&#x2c7;" horiz-adv-x="734" 
d="M370 680l56 71h273l-140 -147h-384l-140 147h273l56 -71h6z" />
    <glyph glyph-name="breve" unicode="&#x2d8;" horiz-adv-x="654" 
d="M619 761q-9 -87 -88.5 -128t-203.5 -41t-203.5 41t-88.5 128h221q7 -37 71 -37t71 37h221z" />
    <glyph glyph-name="dotaccent" unicode="&#x2d9;" horiz-adv-x="370" 
d="M335 604h-300v124h300v-124z" />
    <glyph glyph-name="ring" unicode="&#x2da;" horiz-adv-x="442" 
d="M88 629.5q-53 37.5 -53 101.5t53 101.5t133 37.5t133 -37.5t53 -101.5t-53 -101.5t-133 -37.5t-133 37.5zM258 700q15 12 15 31t-15 31t-37 12t-37 -12t-15 -31t15 -31t37 -12t37 12z" />
    <glyph glyph-name="ogonek" unicode="&#x2db;" horiz-adv-x="399" 
d="M337.5 -127q10.5 2 26.5 7v-124q-47 -11 -116 -11q-105 0 -159 28t-54 95q0 55 55.5 93t158.5 56l115 -17q-56 -19 -81 -44t-25 -51q0 -34 47 -34q22 0 32.5 2z" />
    <glyph glyph-name="tilde" unicode="&#x2dc;" horiz-adv-x="659" 
d="M406 593.5q-30 6.5 -73 18.5q-25 7 -49.5 12.5t-41.5 5.5q-18 0 -24.5 -8t-5.5 -24h-177q0 56 22 96t57.5 60.5t76.5 20.5q31 0 62 -6.5t73 -18.5q6 -2 37.5 -10t53.5 -8q18 0 24.5 8t5.5 24h177q0 -56 -22.5 -96t-58.5 -60.5t-76 -20.5q-31 0 -61 6.5z" />
    <glyph glyph-name="hungarumlaut" unicode="&#x2dd;" horiz-adv-x="775" 
d="M116 761h288l-154 -157h-215zM452 761h288l-154 -157h-215z" />
    <glyph glyph-name="uni0326" unicode="&#x326;" horiz-adv-x="0" 
d="M-35 -168q0 -45 -17.5 -73t-82.5 -45.5t-200 -17.5v62q62 0 90 6.5t35 17.5t7 31h-132v124h300v-105z" />
    <glyph glyph-name="Wgrave" unicode="&#x1e80;" horiz-adv-x="1280" 
d="M1297 714l-198 -714h-357l-99 428h-6l-99 -428h-363l-192 714h303l91 -433h6l100 433h314l101 -433h6l92 433h301zM516 772l-212 157h358l96 -157h-242z" />
    <glyph glyph-name="wgrave" unicode="&#x1e81;" horiz-adv-x="1267" 
d="M963 542h310l-233 -542h-304l-93 289h-6l-93 -289h-318l-232 542h313l97 -282h6l91 282h271l90 -281h6zM510 604l-212 157h358l96 -157h-242z" />
    <glyph glyph-name="Wacute" unicode="&#x1e82;" horiz-adv-x="1280" 
d="M1297 714l-198 -714h-357l-99 428h-6l-99 -428h-363l-192 714h303l91 -433h6l100 433h314l101 -433h6l92 433h301zM628 929h358l-212 -157h-242z" />
    <glyph glyph-name="wacute" unicode="&#x1e83;" horiz-adv-x="1267" 
d="M963 542h310l-233 -542h-304l-93 289h-6l-93 -289h-318l-232 542h313l97 -282h6l91 282h271l90 -281h6zM615 761h358l-212 -157h-242z" />
    <glyph glyph-name="Wdieresis" unicode="&#x1e84;" horiz-adv-x="1280" 
d="M1297 714l-198 -714h-357l-99 428h-6l-99 -428h-363l-192 714h303l91 -433h6l100 433h314l101 -433h6l92 433h301zM602 782h-260v124h260v-124zM938 782h-260v124h260v-124z" />
    <glyph glyph-name="wdieresis" unicode="&#x1e85;" horiz-adv-x="1267" 
d="M963 542h310l-233 -542h-304l-93 289h-6l-93 -289h-318l-232 542h313l97 -282h6l91 282h271l90 -281h6zM599 604h-260v124h260v-124zM935 604h-260v124h260v-124z" />
    <glyph glyph-name="Ygrave" unicode="&#x1ef2;" horiz-adv-x="968" 
d="M644 714h344l-354 -488v-226h-300v226l-354 488h345l159 -251zM361 772l-212 157h358l96 -157h-242z" />
    <glyph glyph-name="ygrave" unicode="&#x1ef3;" horiz-adv-x="878" 
d="M623 23q-50 -98 -84.5 -140.5t-92.5 -60.5t-172 -18h-187v211h109q39 0 49 2t12 8l1 3l-268 514h332l114 -286h6l114 286h332zM312 604l-212 157h358l96 -157h-242z" />
    <glyph glyph-name="uni2007" unicode="&#x2007;" horiz-adv-x="295" 
 />
    <glyph glyph-name="uni2008" unicode="&#x2008;" horiz-adv-x="273" 
 />
    <glyph glyph-name="uni200B" unicode="&#x200b;" horiz-adv-x="0" 
 />
    <glyph glyph-name="endash" unicode="&#x2013;" horiz-adv-x="768" 
d="M746 371v-156h-724v156h724z" />
    <glyph glyph-name="emdash" unicode="&#x2014;" horiz-adv-x="1033" 
d="M1011 371v-156h-989v156h989z" />
    <glyph glyph-name="quoteleft" unicode="&#x2018;" horiz-adv-x="330" 
d="M29 444q0 98 27.5 157t87 86t157.5 27v-88q-55 0 -80 -30.5t-25 -88.5h105v-223h-272v160z" />
    <glyph glyph-name="quoteright" unicode="&#x2019;" horiz-adv-x="330" 
d="M301 554q0 -98 -27.5 -157t-87 -86t-157.5 -27v88q55 0 80 30.5t25 88.5h-105v223h272v-160z" />
    <glyph glyph-name="quotesinglbase" unicode="&#x201a;" horiz-adv-x="330" 
d="M301 63q0 -98 -27.5 -157t-87 -86t-157.5 -27v88q55 0 80 30.5t25 88.5h-105v223h272v-160z" />
    <glyph glyph-name="quotedblleft" unicode="&#x201c;" horiz-adv-x="692" 
d="M29 444q0 98 27.5 157t87 86t157.5 27v-88q-55 0 -80 -30.5t-25 -88.5h105v-223h-272v160zM391 444q0 98 27.5 157t87 86t157.5 27v-88q-55 0 -80 -30.5t-25 -88.5h105v-223h-272v160z" />
    <glyph glyph-name="quotedblright" unicode="&#x201d;" horiz-adv-x="692" 
d="M301 554q0 -98 -27.5 -157t-87 -86t-157.5 -27v88q55 0 80 30.5t25 88.5h-105v223h272v-160zM663 554q0 -98 -27.5 -157t-87 -86t-157.5 -27v88q55 0 80 30.5t25 88.5h-105v223h272v-160z" />
    <glyph glyph-name="quotedblbase" unicode="&#x201e;" horiz-adv-x="692" 
d="M301 63q0 -98 -27.5 -157t-87 -86t-157.5 -27v88q55 0 80 30.5t25 88.5h-105v223h272v-160zM663 63q0 -98 -27.5 -157t-87 -86t-157.5 -27v88q55 0 80 30.5t25 88.5h-105v223h272v-160z" />
    <glyph glyph-name="dagger" unicode="&#x2020;" horiz-adv-x="809" 
d="M544 504h243v-214h-243v-464h-279v464h-243v214h243v210h279v-210z" />
    <glyph glyph-name="daggerdbl" unicode="&#x2021;" horiz-adv-x="809" 
d="M787 504v-184h-243v-100h243v-184h-243v-210h-279v210h-243v184h243v100h-243v184h243v210h279v-210h243z" />
    <glyph glyph-name="bullet" unicode="&#x2022;" horiz-adv-x="424" 
d="M116.5 192.5q-43.5 25.5 -69 69t-25.5 95.5t25.5 95.5t69 69t95.5 25.5t95.5 -25.5t69 -69t25.5 -95.5t-25.5 -95.5t-69 -69t-95.5 -25.5t-95.5 25.5z" />
    <glyph glyph-name="ellipsis" unicode="&#x2026;" horiz-adv-x="1134" 
d="M343 0h-308v250h308v-250zM721 0h-308v250h308v-250zM1099 0h-308v250h308v-250z" />
    <glyph glyph-name="perthousand" unicode="&#x2030;" horiz-adv-x="1753" 
d="M459 663.5q59 -50.5 59 -154.5t-59 -154.5t-189 -50.5t-189 50.5t-59 154.5t59 154.5t189 50.5t189 -50.5zM307 0l456 700h137l-456 -700h-137zM340 509q0 87 -70 87t-70 -87t70 -87t70 87zM1126 345.5q59 -50.5 59 -154.5t-59 -154.5t-189 -50.5t-189 50.5t-59 154.5
t59 154.5t189 50.5t189 -50.5zM1672 345.5q59 -50.5 59 -154.5t-59 -154.5t-189 -50.5t-189 50.5t-59 154.5t59 154.5t189 50.5t189 -50.5zM1007 191q0 87 -70 87t-70 -87t70 -87t70 87zM1553 191q0 87 -70 87t-70 -87t70 -87t70 87z" />
    <glyph glyph-name="guilsinglleft" unicode="&#x2039;" horiz-adv-x="291" 
d="M35 131v281l221 131v-205l-115 -63v-6l115 -63v-205z" />
    <glyph glyph-name="guilsinglright" unicode="&#x203a;" horiz-adv-x="278" 
d="M35 543l221 -131v-281l-221 -130v205l115 63v6l-115 63v205z" />
    <glyph glyph-name="uni2070" unicode="&#x2070;" horiz-adv-x="621" 
d="M534 675.5q70 -54.5 70 -169.5t-70 -169.5t-223 -54.5q-154 0 -224 54.5t-70 169.5t70 169.5t224 54.5q153 0 223 -54.5zM384 436q24 22 24 70t-24 70.5t-73 22.5t-73 -22.5t-24 -70.5t24 -70t73 -22t73 22z" />
    <glyph glyph-name="uni2074" unicode="&#x2074;" horiz-adv-x="570" 
d="M301 298v78h-293v122l230 216h251v-233h70v-105h-70v-78h-188zM186 481h115v108h-3l-112 -104v-4z" />
    <glyph glyph-name="uni2075" unicode="&#x2075;" horiz-adv-x="579" 
d="M537 714v-112h-338l-3 -51h3q30 12 59.5 18.5t92.5 6.5q111 0 162.5 -34t51.5 -111q0 -53 -26 -85.5t-86.5 -48t-164.5 -15.5q-103 0 -162 15t-84.5 45t-27.5 79h204q3 -24 70 -24q37 0 55 8t18 26t-17.5 26t-54.5 8q-31 0 -48 -5t-19 -6h-200l19 260h496z" />
    <glyph glyph-name="uni2076" unicode="&#x2076;" horiz-adv-x="601" 
d="M527.5 537.5q59.5 -32.5 59.5 -105.5q0 -76 -63.5 -113t-212.5 -37q-108 0 -171.5 20.5t-93 68.5t-29.5 134q0 81 29.5 130t92.5 72t165 23q152 0 213.5 -38.5t67.5 -101.5h-205q-3 31 -77 31q-94 0 -98 -72h4q20 10 56 15.5t64 5.5q139 0 198.5 -32.5zM235 452.5
q-20 -7.5 -20 -26.5t20.5 -26.5t63.5 -7.5t63.5 7.5t20.5 26.5t-20 26.5t-64 7.5t-64 -7.5z" />
    <glyph glyph-name="uni2077" unicode="&#x2077;" horiz-adv-x="556" 
d="M5 714h540v-70q0 -47 -15.5 -78t-44.5 -56l-16 -12q-34 -25 -55.5 -46.5t-38 -59t-19.5 -94.5h-248q3 63 32 110t70.5 82t122.5 91v4h-328v129z" />
    <glyph glyph-name="uni2078" unicode="&#x2078;" horiz-adv-x="606" 
d="M460 717q59 -13 86.5 -41.5t27.5 -76.5q0 -38 -23.5 -57.5t-62.5 -23.5v-4q49 -6 75 -28t26 -69q0 -50 -26 -79t-88 -42.5t-172 -13.5q-111 0 -172.5 13.5t-87.5 42.5t-26 79q0 47 25.5 69t74.5 28v4q-39 4 -62.5 24t-23.5 57q0 48 27.5 76.5t87 41.5t157.5 13t157 -13z
M242.5 612q-18.5 -7 -18.5 -25q0 -17 18.5 -23.5t60.5 -6.5t60.5 6.5t18.5 23.5q0 18 -18.5 25t-60.5 7t-60.5 -7zM363 402q19 8 19 27q0 18 -18.5 25t-60.5 7q-43 0 -61 -7t-18 -25q0 -19 18.5 -27t60.5 -8q41 0 60 8z" />
    <glyph glyph-name="uni2079" unicode="&#x2079;" horiz-adv-x="596" 
d="M115.5 456.5q-56.5 14.5 -82 44.5t-25.5 79q0 76 63.5 113t212.5 37q108 0 171.5 -20.5t93.5 -68.5t30 -134q0 -120 -68 -172.5t-220 -52.5q-151 0 -213 38.5t-68 101.5h205q3 -30 77 -30q94 0 98 72h-3q-21 -11 -56.5 -16.5t-64.5 -5.5q-94 0 -150.5 14.5zM360 559.5
q20 7.5 20 26.5q0 20 -20 27.5t-64 7.5q-43 0 -63.5 -8t-20.5 -27t20 -26.5t64 -7.5t64 7.5z" />
    <glyph glyph-name="franc" unicode="&#x20a3;" horiz-adv-x="1095" 
d="M46 0v700h795v-198h-501v-70h522q108 0 160 -47t52 -131q0 -49 -18.5 -74.5t-56.5 -43.5v-6l86 -130h-266l-53 80h-97v-80h-249v234h-80v-234h-294zM669 264v-60h93q33 0 33 30t-33 30h-93z" />
    <glyph glyph-name="Euro" unicode="&#x20ac;" horiz-adv-x="947" 
d="M452 260q42 -64 163 -64q67 0 115.5 12t132.5 40v-220q-22 -14 -100 -26.5t-148 -12.5q-221 0 -340 66.5t-146 204.5h-114l59 70h47v20v20h-106l56 70h58q27 138 144 204.5t332 66.5q118 0 199.5 -24t123.5 -54l-142 -169q-65 40 -181 40q-114 0 -154 -64h315l-59 -70
h-277q-1 -6 -1 -20t1 -20h243l-58 -70h-163z" />
    <glyph glyph-name="uni2116" unicode="&#x2116;" horiz-adv-x="1608" 
d="M1511.5 675q61.5 -45 61.5 -130q0 -86 -61.5 -130.5t-197.5 -44.5t-197.5 44.5t-61.5 130.5q0 85 61.5 130t197.5 45t197.5 -45zM683 340v374h282v-714h-341l-301 378h-6v-378h-282v714h345l297 -374h6zM1387 545q0 62 -73 62t-73 -62q0 -63 73 -63t73 63zM1055 0v124
h518v-124h-518z" />
    <glyph glyph-name="trademark" unicode="&#x2122;" horiz-adv-x="1108" 
d="M22 714h445v-115h-147v-243h-150v243h-148v115zM851 714h235v-358h-151v219h-6l-78 -219h-111l-79 220h-6v-220h-141v358h226l52 -175h6z" />
    <glyph glyph-name="uni2126" unicode="&#x2126;" horiz-adv-x="1132" 
d="M26 0v158h211v6q-83 12 -139 71t-56 163q0 343 524 343t524 -343q0 -104 -56 -163t-139 -71v-6h211v-158h-490v210q37 6 71 27.5t54.5 56.5t20.5 78q0 71 -47.5 110t-148.5 39t-148.5 -39t-47.5 -110q0 -43 20.5 -78t54.5 -56.5t71 -27.5v-210h-490z" />
    <glyph glyph-name="partialdiff" unicode="&#x2202;" horiz-adv-x="925" 
d="M662 718.5q102 -28.5 169.5 -113.5t67.5 -245q0 -146 -52 -230.5t-151 -119t-252 -34.5q-186 0 -302 60.5t-116 189.5q0 149 106.5 200.5t271.5 51.5q102 0 163 -22q-17 61 -60 85.5t-108 24.5q-126 0 -250 -68l-77 164q142 85 356 85q132 0 234 -28.5zM541.5 183
q29.5 36 34.5 103q-39 21 -98 21q-63 0 -105 -20t-42 -65q0 -34 31 -54.5t77 -20.5q73 0 102.5 36z" />
    <glyph glyph-name="emptyset" unicode="&#x2205;" horiz-adv-x="822" 
d="M662 622q54 -51 84 -119.5t30 -145.5q0 -99 -49 -183t-133 -133t-183 -49q-101 0 -186 51l-38 -51h-102l75 100q-54 51 -84 119.5t-30 145.5q0 99 49 183t133 133t183 49t187 -51l38 51h102zM158.5 251q19.5 -50 55.5 -89l332 440q-62 37 -135 37q-74 0 -136.5 -38
t-99 -102.5t-36.5 -141.5q0 -56 19.5 -106zM547.5 113q62.5 38 99 102.5t36.5 141.5q0 55 -19.5 105t-54.5 89l-332 -440q61 -36 134 -36q74 0 136.5 38z" />
    <glyph glyph-name="uni2206" unicode="&#x2206;" horiz-adv-x="1073" 
d="M327 714h419l337 -714h-1093zM533 514l-149 -338h303l-148 338h-6z" />
    <glyph glyph-name="product" unicode="&#x220f;" horiz-adv-x="1000" 
d="M965 714v-862h-300v632h-329v-632h-301v862h930z" />
    <glyph glyph-name="summation" unicode="&#x2211;" horiz-adv-x="916" 
d="M438 72h453v-220h-856v192l299 240l-280 239v191h818v-220h-383l229 -197z" />
    <glyph glyph-name="minus" unicode="&#x2212;" horiz-adv-x="618" 
d="M45 400h528v-148h-528v148z" />
    <glyph glyph-name="uni2219" unicode="&#x2219;" horiz-adv-x="350" 
d="M110 205q-30 18 -47.5 49t-17.5 67t17.5 66.5t47.5 48.5t65 18t65 -18t47.5 -48.5t17.5 -66.5t-17.5 -67t-47.5 -49t-65 -18t-65 18z" />
    <glyph glyph-name="radical" unicode="&#x221a;" horiz-adv-x="693" 
d="M564 700h107l-257 -848h-160l-124 334l-77 -32l-31 62l201 82l120 -321h2z" />
    <glyph glyph-name="infinity" unicode="&#x221e;" horiz-adv-x="818" 
d="M681.5 471q43.5 -28 67.5 -72.5t24 -91.5q0 -52 -23.5 -97t-67 -72t-100.5 -27q-101 0 -181 92q-84 -92 -171 -92q-55 0 -97 27t-65 72t-23 97q0 47 23 91.5t65 72.5t97 28q103 0 181 -92q39 42 79.5 67t91.5 25q56 0 99.5 -28zM291 234.5q24 18.5 51 58.5q-32 56 -55 79
t-55 23q-36 0 -54.5 -25t-18.5 -63q0 -39 19 -65t54 -26t59 18.5zM636 242q20 26 20 65t-19 63.5t-57 24.5q-34 0 -59 -19t-50 -59q30 -54 53.5 -77.5t55.5 -23.5q36 0 56 26z" />
    <glyph glyph-name="integral" unicode="&#x222b;" horiz-adv-x="606" 
d="M593 743v-139q-6 0 -22 1t-35 1q-50 0 -67.5 -14t-17.5 -47v-552q0 -71 -35 -110t-100.5 -53.5t-169.5 -14.5q-78 0 -133 11v139q6 0 22 -1t35 -1q50 0 67.5 14t17.5 47v552q0 71 35 110t100.5 53.5t169.5 14.5q78 0 133 -11z" />
    <glyph glyph-name="approxequal" unicode="&#x2248;" horiz-adv-x="618" 
d="M501 469.5q29 20.5 72 67.5v-153q-62 -70 -125 -70q-32 0 -56 8.5t-53 22.5l-72 36q-4 2 -21 11t-37 14.5t-39 5.5q-25 0 -52.5 -20t-72.5 -65v153q31 31 59 49t66 18q33 0 58 -8.5t53 -22.5l73 -36q5 -3 22 -11.5t35.5 -14t36.5 -5.5q24 0 53 20.5zM501 257.5
q29 20.5 72 67.5v-154q-62 -70 -125 -70q-32 0 -55 8.5t-54 23.5l-72 36q-30 15 -50 22.5t-47 7.5q-25 0 -52.5 -20t-72.5 -65v154q31 31 59 49t66 18q33 0 57 -8.5t54 -23.5l73 -36q5 -2 21.5 -10.5t35.5 -14t37 -5.5q24 0 53 20.5z" />
    <glyph glyph-name="notequal" unicode="&#x2260;" horiz-adv-x="618" 
d="M573 511v-147h-166l-49 -77h215v-148h-308l-57 -90h-146l57 90h-74v148h167l49 77h-216v147h309l57 90h146l-57 -90h73z" />
    <glyph glyph-name="lessequal" unicode="&#x2264;" horiz-adv-x="620" 
d="M46 313v121l528 160v-131l-289 -86v-6l289 -87v-130zM45 124h530v-124h-530v124z" />
    <glyph glyph-name="greaterequal" unicode="&#x2265;" horiz-adv-x="620" 
d="M46 594l528 -160v-121l-528 -159v130l289 87v6l-289 86v131zM45 0v124h530v-124h-530z" />
    <glyph glyph-name="lozenge" unicode="&#x25ca;" horiz-adv-x="833" 
d="M338 746h157l303 -388l-303 -388h-157l-303 388zM211 358l206 -276l205 276l-205 276z" />
    <glyph glyph-name="fi" unicode="&#xfb01;" horiz-adv-x="889" 
d="M410.5 595.5q-23.5 -10.5 -23.5 -36.5q0 -8 1 -12l1 -5h131v-136h-131v-406h-296v406h-83v136h83v34q0 71 35 110t101 53.5t171 14.5q80 0 135 -11v-139q-6 0 -23 1t-36 1q-42 0 -65.5 -10.5zM859 0h-296v542h296v-542zM861 604h-300v124h300v-124z" />
    <glyph glyph-name="fl" unicode="&#xfb02;" horiz-adv-x="904" 
d="M410.5 595.5q-23.5 -10.5 -23.5 -36.5q0 -8 1 -12l1 -5h131v-136h-131v-406h-296v406h-83v136h83v34q0 71 35 110t101 53.5t171 14.5q80 0 135 -11v-139q-6 0 -23 1t-36 1q-42 0 -65.5 -10.5zM874 0h-296v724h296v-724z" />
    <glyph glyph-name="i.loclTRK" horiz-adv-x="356" 
d="M326 0h-296v542h296v-542zM328 604h-300v124h300v-124z" />
    <glyph glyph-name="f_t" horiz-adv-x="1076" 
d="M410.5 595.5q-23.5 -10.5 -23.5 -36.5q0 -8 1 -12l1 -5h131v-136h-131v-406h-296v406h-83v136h83v34q0 71 35 110t101 53.5t171 14.5q80 0 135 -11v-139q-6 0 -23 1t-36 1q-42 0 -65.5 -10.5zM1050 202v-202q-8 -1 -59.5 -5t-104.5 -4q-103 0 -160 19t-81 61.5t-24 117.5
v217h-81v136h81v144h296v-144h133v-136h-133v-171q0 -20 14.5 -27t52.5 -7q36 0 66 1z" />
    <glyph glyph-name="zero.dnom" horiz-adv-x="621" 
d="M534 377.5q70 -54.5 70 -169.5t-70 -169.5t-223 -54.5q-154 0 -224 54.5t-70 169.5t70 169.5t224 54.5q153 0 223 -54.5zM384 138q24 22 24 70t-24 70.5t-73 22.5t-73 -22.5t-24 -70.5t24 -70t73 -22t73 22z" />
    <glyph glyph-name="one.dnom" horiz-adv-x="359" 
d="M329 416v-416h-189v220h-132v120h46q56 0 82 19.5t36 56.5h157z" />
    <glyph glyph-name="two.dnom" horiz-adv-x="589" 
d="M242 134q-29 -5 -33 -19h354v-115h-552v19q0 103 62 154t158 74l73 17q31 7 45.5 15t14.5 19q0 22 -66 22q-65 0 -70 -42h-207q7 80 70.5 117t202.5 37q98 0 157 -12t88 -39.5t29 -75.5q0 -63 -42.5 -92t-120.5 -45z" />
    <glyph glyph-name="three.dnom" horiz-adv-x="593" 
d="M478 216q47 -5 74 -27t27 -68q0 -48 -26.5 -78t-89 -44.5t-171.5 -14.5q-110 0 -171 15t-87 47t-29 87h207q2 -18 21 -26t59 -8q43 0 61.5 6.5t18.5 25.5q0 17 -15.5 23t-44.5 6h-102v101h101q28 0 43 5.5t15 22.5t-18 23.5t-59 6.5q-38 0 -56 -7t-19 -23h-193
q2 51 28.5 82.5t84.5 46t155 14.5t155.5 -13t86 -41.5t27.5 -76.5q0 -38 -21.5 -56.5t-61.5 -24.5v-4z" />
    <glyph glyph-name="four.dnom" horiz-adv-x="570" 
d="M301 0v78h-293v122l230 216h251v-233h70v-105h-70v-78h-188zM186 183h115v108h-3l-112 -104v-4z" />
    <glyph glyph-name="five.dnom" horiz-adv-x="579" 
d="M537 416v-112h-338l-3 -51h3q30 12 59.5 18.5t92.5 6.5q111 0 162.5 -34t51.5 -111q0 -53 -26 -85.5t-86.5 -48t-164.5 -15.5q-103 0 -162 15t-84.5 45t-27.5 79h204q3 -24 70 -24q37 0 55 8t18 26t-17.5 26t-54.5 8q-31 0 -48 -5t-19 -6h-200l19 260h496z" />
    <glyph glyph-name="six.dnom" horiz-adv-x="601" 
d="M527.5 239.5q59.5 -32.5 59.5 -105.5q0 -76 -63.5 -113t-212.5 -37q-108 0 -171.5 20.5t-93 68.5t-29.5 134q0 81 29.5 130t92.5 72t165 23q152 0 213.5 -38.5t67.5 -101.5h-205q-3 31 -77 31q-94 0 -98 -72h4q20 10 56 15.5t64 5.5q139 0 198.5 -32.5zM235 154.5
q-20 -7.5 -20 -26.5t20.5 -26.5t63.5 -7.5t63.5 7.5t20.5 26.5t-20 26.5t-64 7.5t-64 -7.5z" />
    <glyph glyph-name="seven.dnom" horiz-adv-x="556" 
d="M5 416h540v-70q0 -47 -15.5 -78t-44.5 -56l-16 -12q-34 -25 -55.5 -46.5t-38 -59t-19.5 -94.5h-248q3 63 32 110t70.5 82t122.5 91v4h-328v129z" />
    <glyph glyph-name="eight.dnom" horiz-adv-x="606" 
d="M460 419q59 -13 86.5 -41.5t27.5 -76.5q0 -38 -23.5 -57.5t-62.5 -23.5v-4q49 -6 75 -28t26 -69q0 -50 -26 -79t-88 -42.5t-172 -13.5q-111 0 -172.5 13.5t-87.5 42.5t-26 79q0 47 25.5 69t74.5 28v4q-39 4 -62.5 24t-23.5 57q0 48 27.5 76.5t87 41.5t157.5 13t157 -13z
M242.5 314q-18.5 -7 -18.5 -25q0 -17 18.5 -23.5t60.5 -6.5t60.5 6.5t18.5 23.5q0 18 -18.5 25t-60.5 7t-60.5 -7zM363 104q19 8 19 27q0 18 -18.5 25t-60.5 7q-43 0 -61 -7t-18 -25q0 -19 18.5 -27t60.5 -8q41 0 60 8z" />
    <glyph glyph-name="nine.dnom" horiz-adv-x="596" 
d="M115.5 158.5q-56.5 14.5 -82 44.5t-25.5 79q0 76 63.5 113t212.5 37q108 0 171.5 -20.5t93.5 -68.5t30 -134q0 -120 -68 -172.5t-220 -52.5q-151 0 -213 38.5t-68 101.5h205q3 -30 77 -30q94 0 98 72h-3q-21 -11 -56.5 -16.5t-64.5 -5.5q-94 0 -150.5 14.5zM360 261.5
q20 7.5 20 26.5q0 20 -20 27.5t-64 7.5q-43 0 -63.5 -8t-20.5 -27t20 -26.5t64 -7.5t64 7.5z" />
    <glyph glyph-name="uni030C.alt" horiz-adv-x="0" 
d="M-35 639q0 -109 -55.5 -156t-176.5 -47v80q59 0 83.5 15t24.5 51h-108v142h232v-85z" />
    <glyph glyph-name="caron.alt" horiz-adv-x="342" 
d="M307 599q0 -90 -26 -143t-85 -77.5t-161 -24.5v80q67 0 93.5 27t26.5 81h-120v182h272v-125z" />
    <glyph glyph-name="uni0326.case" horiz-adv-x="0" 
d="M-35 -168q0 -45 -17.5 -73t-82.5 -45.5t-200 -17.5v62q62 0 90 6.5t35 17.5t7 31h-132v124h300v-105z" />
    <glyph glyph-name="dieresis.case" horiz-adv-x="666" 
d="M295 782h-260v124h260v-124zM631 782h-260v124h260v-124z" />
    <glyph glyph-name="dotaccent.case" horiz-adv-x="370" 
d="M335 782h-300v124h300v-124z" />
    <glyph glyph-name="grave.case" horiz-adv-x="524" 
d="M247 772l-212 157h358l96 -157h-242z" />
    <glyph glyph-name="acute.case" horiz-adv-x="524" 
d="M131 929h358l-212 -157h-242z" />
    <glyph glyph-name="hungarumlaut.case" horiz-adv-x="775" 
d="M116 929h288l-154 -157h-215zM452 929h288l-154 -157h-215z" />
    <glyph glyph-name="circumflex.case" horiz-adv-x="734" 
d="M699 772h-273l-56 71h-6l-56 -71h-273l140 147h384z" />
    <glyph glyph-name="caron.case" horiz-adv-x="734" 
d="M370 858l56 71h273l-140 -147h-384l-140 147h273l56 -71h6z" />
    <glyph glyph-name="breve.case" horiz-adv-x="654" 
d="M619 938q-9 -87 -88.5 -128t-203.5 -41t-203.5 41t-88.5 128h221q7 -37 71 -37t71 37h221z" />
    <glyph glyph-name="ring.case" horiz-adv-x="442" 
d="M88 778.5q-53 37.5 -53 101.5t53 101.5t133 37.5t133 -37.5t53 -101.5t-53 -101.5t-133 -37.5t-133 37.5zM258 849q15 12 15 31t-15 31t-37 12t-37 -12t-15 -31t15 -31t37 -12t37 12z" />
    <glyph glyph-name="tilde.case" horiz-adv-x="659" 
d="M406 767.5q-30 6.5 -73 18.5q-25 7 -49.5 12.5t-41.5 5.5q-18 0 -24.5 -8t-5.5 -24h-177q0 56 22 96t57.5 60.5t76.5 20.5q31 0 62 -6.5t73 -18.5q6 -2 37.5 -10t53.5 -8q18 0 24.5 8t5.5 24h177q0 -56 -22.5 -96t-58.5 -60.5t-76 -20.5q-31 0 -61 6.5z" />
    <glyph glyph-name="macron.case" horiz-adv-x="570" 
d="M535 918v-124h-500v124h500z" />
    <glyph glyph-name="cedilla.case" horiz-adv-x="453" 
d="M35 -154h6q58 -18 145 -18q26 0 42.5 6t16.5 19t-16.5 19t-42.5 6q-20 0 -48 -2.5t-43 -5.5h-6v49l95 106h108l-65 -73q8 2 24 2q87 0 127 -23.5t40 -76.5q0 -59 -51.5 -83.5t-172.5 -24.5q-95 0 -159 18v82z" />
    <glyph glyph-name="ogonek.case" horiz-adv-x="409" 
d="M347 -127q12 2 27 7v-124q-47 -11 -116 -11q-106 0 -164.5 28.5t-58.5 94.5q0 54 60 92t164 57l115 -17q-56 -19 -81 -44t-25 -51q0 -18 12.5 -26t29.5 -8q25 0 37 2z" />
    </font>
</defs>
</svg>
