<?xml version="1.0" encoding="utf-8"?>
<!-- Generator: Adobe Illustrator 26.5.0, SVG Export Plug-In . SVG Version: 6.00 Build 0)  -->
<svg version="1.1" id="Layer_1" xmlns="http://www.w3.org/2000/svg" xmlns:xlink="http://www.w3.org/1999/xlink" x="0px" y="0px"
	 viewBox="0 0 16 10.6" style="enable-background:new 0 0 16 10.6;" xml:space="preserve">
<g>
	<path d="M1.9,1.9c-0.2,0-0.3,0-0.4,0.1C1.4,2.1,1.4,2.2,1.3,2.3C1.2,2.4,1.2,2.5,1.2,2.7c0,0.1,0,0.3,0,0.4s0,0.3,0,0.4
		s0.1,0.2,0.1,0.4C1.4,4,1.4,4.1,1.5,4.2c0.1,0.1,0.2,0.1,0.4,0.1s0.4-0.1,0.5-0.2C2.5,4,2.6,3.8,2.6,3.6h0.9c0,0.3-0.2,0.7-0.5,0.9
		S2.4,4.9,1.9,4.9c-0.3,0-0.5,0-0.7-0.1C1,4.6,0.8,4.5,0.6,4.4C0.5,4.2,0.4,4,0.3,3.8S0.2,3.4,0.2,3.1c0-0.3,0-0.5,0.1-0.7
		S0.5,2,0.6,1.8C0.8,1.6,1,1.5,1.2,1.4s0.4-0.2,0.7-0.2c0.2,0,0.4,0,0.6,0.1S2.9,1.4,3,1.5s0.3,0.2,0.4,0.4c0.1,0.2,0.1,0.4,0.2,0.6
		h-1C2.6,2.1,2.3,1.9,1.9,1.9z"/>
	<path d="M4.1,2.3c0.1-0.2,0.2-0.4,0.4-0.6c0.2-0.2,0.3-0.3,0.6-0.4c0.2,0,0.4-0.1,0.7-0.1s0.5,0,0.7,0.1s0.4,0.2,0.6,0.4
		c0.2,0.2,0.3,0.4,0.4,0.6s0.1,0.5,0.1,0.8s0,0.5-0.1,0.7S7.3,4.2,7.1,4.4C6.9,4.5,6.8,4.6,6.5,4.7C6.3,4.8,6.1,4.9,5.8,4.9
		c-0.3,0-0.5,0-0.7-0.1C4.8,4.6,4.7,4.5,4.5,4.4C4.3,4.2,4.2,4,4.1,3.8C4.1,3.6,4,3.3,4,3C4,2.8,4.1,2.5,4.1,2.3z M5,3.5
		c0,0.1,0.1,0.2,0.1,0.4C5.2,4,5.3,4.1,5.4,4.2c0.1,0.1,0.2,0.1,0.4,0.1c0.2,0,0.3,0,0.4-0.1c0.1-0.1,0.2-0.1,0.3-0.3
		c0.1-0.1,0.1-0.2,0.1-0.4c0-0.1,0-0.3,0-0.4s0-0.3,0-0.4S6.5,2.4,6.5,2.3C6.4,2.2,6.3,2.1,6.2,2C6.1,2,6,1.9,5.8,1.9S5.5,1.9,5.4,2
		C5.3,2.1,5.2,2.2,5.1,2.3C5.1,2.4,5,2.5,5,2.6C5,2.7,5,2.9,5,3C5,3.2,5,3.3,5,3.5z"/>
	<path d="M10.7,4.3c-0.1,0.2-0.3,0.3-0.4,0.4C10,4.8,9.8,4.9,9.6,4.9c-0.3,0-0.5-0.1-0.7-0.2C8.7,4.6,8.6,4.5,8.4,4.3
		C8.3,4.1,8.2,3.9,8.2,3.7C8.1,3.5,8.1,3.3,8.1,3c0-0.2,0-0.5,0.1-0.7s0.2-0.4,0.3-0.6S8.8,1.4,9,1.3c0.1,0,0.3-0.1,0.6-0.1
		c0.2,0,0.4,0,0.6,0.1c0.2,0.1,0.3,0.2,0.4,0.4l0,0V0h0.9v4.8h-0.9L10.7,4.3L10.7,4.3z M10.6,2.6c0-0.1-0.1-0.2-0.1-0.3
		c-0.1-0.1-0.1-0.2-0.3-0.2C10.1,2,10,1.9,9.8,1.9S9.5,1.9,9.4,2C9.3,2.1,9.3,2.2,9.2,2.3C9.1,2.4,9.1,2.5,9,2.6C9,2.7,9,2.9,9,3
		s0,0.3,0,0.4s0.1,0.3,0.2,0.4C9.3,3.9,9.4,4,9.5,4.1s0.2,0.1,0.4,0.1s0.3,0,0.4-0.1C10.4,4,10.5,4,10.6,3.8
		c0.1-0.1,0.1-0.2,0.1-0.4c0-0.1,0-0.3,0-0.4C10.7,2.9,10.6,2.8,10.6,2.6z"/>
	<path d="M13.3,3.9c0.1,0.1,0.3,0.2,0.6,0.2c0.2,0,0.4,0,0.5-0.1c0.1-0.1,0.2-0.2,0.3-0.3h0.8c-0.1,0.4-0.3,0.7-0.6,0.9
		s-0.6,0.3-1,0.3c-0.3,0-0.5,0-0.7-0.1c-0.2-0.1-0.4-0.2-0.6-0.4c-0.2-0.2-0.3-0.4-0.4-0.6c-0.1-0.2-0.1-0.5-0.1-0.7
		c0-0.3,0-0.5,0.1-0.7s0.2-0.4,0.4-0.6s0.3-0.3,0.6-0.4c0.2-0.1,0.5-0.1,0.7-0.1c0.3,0,0.6,0.1,0.8,0.2s0.4,0.3,0.5,0.5
		s0.2,0.4,0.3,0.7c0.1,0.2,0.1,0.5,0.1,0.8h-2.5C13.1,3.6,13.2,3.8,13.3,3.9z M14.4,2.1c-0.1-0.1-0.3-0.2-0.5-0.2s-0.3,0-0.4,0.1
		c-0.1,0.1-0.2,0.1-0.2,0.2c-0.1,0.1-0.1,0.2-0.1,0.2c0,0.1,0,0.2,0,0.2h1.5C14.6,2.4,14.5,2.2,14.4,2.1z"/>
	<path d="M1.1,9.7c0,0.1,0.1,0.1,0.2,0.2c0.1,0,0.1,0.1,0.2,0.1s0.2,0,0.3,0s0.1,0,0.2,0c0.1,0,0.1,0,0.2-0.1c0.1,0,0.1-0.1,0.2-0.1
		c0-0.1,0.1-0.1,0.1-0.2c0-0.1-0.1-0.2-0.3-0.3S1.7,9.2,1.4,9.1C1.3,9.1,1.1,9,1,9S0.8,8.9,0.6,8.8C0.5,8.7,0.4,8.6,0.4,8.5
		C0.3,8.4,0.3,8.3,0.3,8.1s0-0.4,0.1-0.5s0.2-0.3,0.3-0.3C0.8,7.1,1,7,1.1,7c0.2,0,0.4-0.1,0.5-0.1S2,6.9,2.1,7
		c0.2,0,0.3,0.1,0.5,0.2C2.8,7.3,3,7.4,3,7.5C3.1,7.6,3.1,7.8,3.2,8H2.3c0-0.2-0.1-0.3-0.2-0.4C2,7.5,1.8,7.5,1.7,7.5s-0.1,0-0.2,0
		s-0.1,0-0.2,0S1.2,7.6,1.2,7.6S1.1,7.7,1.1,7.8c0,0.1,0,0.2,0.1,0.2c0.1,0.1,0.1,0.1,0.2,0.1s0.2,0.1,0.3,0.1
		c0.1,0,0.3,0.1,0.4,0.1c0.1,0,0.3,0.1,0.4,0.1c0.1,0,0.2,0.1,0.4,0.2C3,8.7,3.1,8.8,3.1,8.9C3.2,9,3.2,9.1,3.2,9.3s0,0.4-0.1,0.6
		c0,0.2-0.1,0.4-0.3,0.4c-0.1,0.1-0.3,0.2-0.5,0.2s-0.4,0.1-0.6,0.1s-0.4,0-0.6-0.1c-0.2,0-0.4-0.1-0.5-0.2
		c-0.1-0.1-0.3-0.2-0.4-0.4S0.1,9.6,0,9.3h1C1,9.5,1,9.6,1.1,9.7z"/>
	<path d="M4.9,5.7v2.6l1.2-1.2h1.1L5.9,8.3l1.5,2.2H6.2L5.3,9L4.9,9.3v1.2h-1V5.7H4.9z"/>
	<path d="M7.7,6.5V5.7h0.9v0.8H7.7z M8.7,7.1v3.5h-1V7.1H8.7z"/>
	<path d="M10.4,5.7v4.8h-1V5.7H10.4z"/>
	<path d="M12.1,5.7v4.8h-0.9V5.7H12.1z"/>
	<path d="M13.7,9.7c0,0.1,0.1,0.1,0.2,0.2C14,9.9,14,10,14.1,10c0.1,0,0.2,0,0.3,0s0.1,0,0.2,0c0.1,0,0.1,0,0.2-0.1
		c0.1,0,0.1-0.1,0.2-0.1c0-0.1,0.1-0.1,0.1-0.2c0-0.1-0.1-0.2-0.3-0.3S14.3,9.2,14,9.1c-0.1,0-0.3-0.1-0.4-0.1
		c-0.1,0-0.2-0.1-0.4-0.2C13.1,8.7,13,8.6,13,8.5c-0.1-0.1-0.1-0.2-0.1-0.4s0-0.4,0.1-0.5s0.2-0.3,0.3-0.3c0.1-0.1,0.3-0.1,0.5-0.2
		C14,7.1,14.2,7,14.3,7c0.2,0,0.4,0,0.5,0.1c0.2,0,0.3,0.1,0.5,0.2c0.1,0.1,0.3,0.2,0.3,0.3c0.1,0.1,0.1,0.3,0.2,0.5h-0.9
		c0-0.2-0.1-0.3-0.2-0.4c-0.1-0.1-0.3-0.1-0.4-0.1c-0.1,0-0.1,0-0.2,0c-0.1,0-0.1,0-0.2,0c-0.1,0-0.1,0.1-0.1,0.1s-0.1,0.1-0.1,0.2
		c0,0.1,0,0.2,0.1,0.2c0.1,0.1,0.1,0.1,0.2,0.1c0.1,0,0.2,0.1,0.3,0.1s0.3,0.1,0.4,0.1c0.1,0,0.3,0.1,0.4,0.1c0.1,0,0.2,0.1,0.4,0.2
		c0.1,0.1,0.2,0.2,0.2,0.3c0.1,0.1,0.1,0.2,0.1,0.4s0,0.4-0.1,0.6c-0.1,0.2-0.2,0.3-0.4,0.4c-0.1,0.1-0.3,0.2-0.5,0.2
		s-0.4,0.1-0.6,0.1c-0.2,0-0.4,0-0.6-0.1c-0.2,0-0.4-0.1-0.5-0.2c-0.1-0.1-0.3-0.2-0.4-0.4c-0.1-0.2-0.1-0.3-0.2-0.6h0.9
		C13.6,9.5,13.6,9.6,13.7,9.7z"/>
</g>
</svg>
